<svg xmlns="http://www.w3.org/2000/svg" viewBox="0 0 32 32"><path fill-rule="evenodd" clip-rule="evenodd" fill="#FFF" stroke="#0D3CFF" stroke-width="2" d="M10 2h20v19.2h-3.3v3.5l-3.6-3.5H10V2z"/><path fill-rule="evenodd" clip-rule="evenodd" fill="#FFF" stroke="#0D3CFF" stroke-width="2" d="M22 6H2v19.2h3.3v3.5l3.6-3.5H22V6z"/><path fill="#0D3CFF" d="M12 14c.8 0 1.5.7 1.5 1.5S12.8 17 12 17s-1.5-.7-1.5-1.5.7-1.5 1.5-1.5m5 0c.8 0 1.5.7 1.5 1.5S17.8 17 17 17s-1.5-.7-1.5-1.5.7-1.5 1.5-1.5M7 14c.8 0 1.5.7 1.5 1.5S7.8 17 7 17s-1.5-.7-1.5-1.5S6.2 14 7 14"/></svg>