<svg xmlns="http://www.w3.org/2000/svg" viewBox="0 0 306 425"><path fill-rule="evenodd" clip-rule="evenodd" fill="#FAA" d="M22.1 6.1C20.4 6.1 19 4.7 19 3s1.3-3 3.1-3 3.1 1.4 3.1 3.1-1.4 3-3.1 3zm0 48c-1.7 0-3.1-1.4-3.1-3.1 0-1.7 1.4-3.1 3.1-3.1s3.1 1.4 3.1 3.1c0 1.7-1.4 3.1-3.1 3.1zm0 48c-1.7 0-3.1-1.4-3.1-3.1s1.4-3.1 3.1-3.1 3.1 1.4 3.1 3.1-1.4 3.1-3.1 3.1zm0 48c-1.7 0-3.1-1.4-3.1-3.1s1.4-3.1 3.1-3.1 3.1 1.4 3.1 3.1-1.4 3.1-3.1 3.1zm.9 53.8c-3.4 0-6.1-2.7-6.1-6s2.8-6 6.1-6 6.1 2.7 6.1 6-2.7 6-6.1 6zm0 48c-3.4 0-6.1-2.7-6.1-6s2.8-6 6.1-6 6.1 2.7 6.1 6-2.7 6-6.1 6zm-.9 42.1c-1.7 0-3.1-1.4-3.1-3.1 0-1.7 1.4-3.1 3.1-3.1s3.1 1.4 3.1 3.1c0 1.7-1.4 3.1-3.1 3.1zM71 12c-3.4 0-6.1-2.7-6.1-6s2.8-6 6.1-6 6.1 2.7 6.1 6-2.7 6-6.1 6zm0 48c-3.4 0-6.1-2.7-6.1-6s2.8-6 6.1-6 6.1 2.7 6.1 6-2.7 6-6.1 6zm0 47.9c-3.4 0-6.1-2.7-6.1-6s2.8-6 6.1-6 6.1 2.7 6.1 6c0 3.4-2.7 6-6.1 6zm0 48c-3.4 0-6.1-2.7-6.1-6s2.8-6 6.1-6 6.1 2.7 6.1 6-2.7 6-6.1 6zm0 48c-3.4 0-6.1-2.7-6.1-6s2.8-6 6.1-6 6.1 2.7 6.1 6-2.7 6-6.1 6zM70 246c-1.7 0-3.1-1.4-3.1-3.1s1.4-3.1 3.1-3.1 3.1 1.4 3.1 3.1-1.4 3.1-3.1 3.1zM118 6.1c-1.7 0-3.1-1.4-3.1-3.1s1.3-3 3.1-3c1.7 0 3.1 1.4 3.1 3.1s-1.4 3-3.1 3zm0 48c-1.7 0-3.1-1.4-3.1-3.1 0-1.7 1.4-3.1 3.1-3.1 1.7 0 3.1 1.4 3.1 3.1 0 1.7-1.4 3.1-3.1 3.1zm0 48c-1.7 0-3.1-1.4-3.1-3.1s1.4-3.1 3.1-3.1c1.7 0 3.1 1.4 3.1 3.1s-1.4 3.1-3.1 3.1zm0 48c-1.7 0-3.1-1.4-3.1-3.1s1.4-3.1 3.1-3.1c1.7 0 3.1 1.4 3.1 3.1s-1.4 3.1-3.1 3.1zm0 47.9c-1.7 0-3.1-1.4-3.1-3.1s1.4-3.1 3.1-3.1c1.7 0 3.1 1.4 3.1 3.1s-1.4 3.1-3.1 3.1zm0 48c-1.7 0-3.1-1.4-3.1-3.1s1.4-3.1 3.1-3.1c1.7 0 3.1 1.4 3.1 3.1s-1.4 3.1-3.1 3.1zm0 48c-1.7 0-3.1-1.4-3.1-3.1 0-1.7 1.4-3.1 3.1-3.1 1.7 0 3.1 1.4 3.1 3.1 0 1.7-1.4 3.1-3.1 3.1zM165.9 6.1c-1.7 0-3.1-1.4-3.1-3.1s1.4-3.1 3.1-3.1S169 1.3 169 3s-1.4 3.1-3.1 3.1zm0 48c-1.7 0-3.1-1.4-3.1-3.1 0-1.7 1.4-3.1 3.1-3.1s3.1 1.4 3.1 3.1c.1 1.7-1.4 3.1-3.1 3.1zm0 48c-1.7 0-3.1-1.4-3.1-3.1s1.4-3.1 3.1-3.1 3.1 1.4 3.1 3.1-1.4 3.1-3.1 3.1zm0 48c-1.7 0-3.1-1.4-3.1-3.1s1.4-3.1 3.1-3.1 3.1 1.4 3.1 3.1-1.4 3.1-3.1 3.1zm0 47.9c-1.7 0-3.1-1.4-3.1-3.1s1.4-3.1 3.1-3.1 3.1 1.4 3.1 3.1-1.4 3.1-3.1 3.1zm0 48c-1.7 0-3.1-1.4-3.1-3.1s1.4-3.1 3.1-3.1 3.1 1.4 3.1 3.1-1.4 3.1-3.1 3.1zm48-239.9c-1.7 0-3.1-1.4-3.1-3.1s1.4-3.1 3.1-3.1S217 1.3 217 3s-1.4 3.1-3.1 3.1zm0 48c-1.7 0-3.1-1.4-3.1-3.1 0-1.7 1.4-3.1 3.1-3.1s3.1 1.4 3.1 3.1c0 1.7-1.4 3.1-3.1 3.1zm0 48c-1.7 0-3.1-1.4-3.1-3.1s1.4-3.1 3.1-3.1 3.1 1.4 3.1 3.1-1.4 3.1-3.1 3.1zm1 53.8c-3.4 0-6.1-2.7-6.1-6s2.8-6 6.1-6 6.1 2.7 6.1 6-2.8 6-6.1 6zm-1 42.1c-1.7 0-3.1-1.4-3.1-3.1s1.4-3.1 3.1-3.1 3.1 1.4 3.1 3.1-1.4 3.1-3.1 3.1zm0 48c-1.7 0-3.1-1.4-3.1-3.1s1.4-3.1 3.1-3.1 3.1 1.4 3.1 3.1-1.4 3.1-3.1 3.1z"/><path fill="none" stroke="#FAA" stroke-width="2" d="M1 122h302L1 424"/></svg>