<svg xmlns="http://www.w3.org/2000/svg" viewBox="0 0 96 96"><path d="M95.9 56.3c0-.4-.1-.8-.2-1.3 0-.3-.1-.6-.1-.9-.1-.6-.3-1.1-.4-1.7 0-.1-.1-.2-.1-.3-2.5-8.7-9.9-15.3-19-16.5h-.2c-.3-.1-.6-.2-1-.2H21.1c-.3 0-.7.1-1 .2H20C10.8 36.7 3.4 43.3.9 52.1c0 .1 0 .2-.1.3-.2.6-.3 1.1-.4 1.7-.1.3-.1.6-.1.8-.1.4-.1.8-.2 1.3-.1.8-.1 1.5-.1 2.3 0 12.7 10.2 23 22.8 23 .7 0 1.4 0 2.1-.1.2 0 .4 0 .6-.1.5-.1 1.1-.1 1.6-.2.2 0 .3-.1.5-.1.7-.1 1.3-.3 2-.5 5-1.5 9.2-4.8 12.1-9.1v-.1c.4-.6.8-1.2 1.1-1.9l.9-1.8c.1-.3.3-.7.4-1.1.1-.2.1-.4.2-.5h7.4c.1.2.1.4.2.5.1.3.3.7.4 1 .6 1.3 1.2 2.5 2 3.7 3.3 4.9 8.3 8.4 14.1 9.6.2 0 .3.1.5.1.5.1 1.1.2 1.6.2.2 0 .4 0 .6.1.7.1 1.4.1 2.1.1 11.8 0 21.5-9.1 22.7-20.7.1-.8.1-1.6.1-2.4 0-.5 0-1.2-.1-1.9zm-6.5 7.3c-2.1 6.9-8.6 12-16.1 12-.5 0-1.1 0-1.6-.1-.1 0-.3 0-.4-.1-.4 0-.8-.1-1.2-.2-.1 0-.3-.1-.4-.1l-1.2-.3c-.1 0-.2-.1-.3-.1-3.6-1.2-6.7-3.5-8.8-6.6l-.1-.1c-.2-.4-.5-.8-.7-1.1-.1-.1-.1-.2-.2-.3-.1-.3-.3-.5-.4-.8-.5-1-.9-2.2-1.2-3.3-.2-.9-.4-2.2-.5-4h-5.9c0 .7.1 1.3.1 1.6h-5c0-.4.1-.9.1-1.6h-5.9c-.1 1.8-.3 3.1-.5 4-.3 1.2-.7 2.3-1.2 3.4-.1.2-.2.5-.3.7-.1.1-.1.2-.2.3-.2.4-.4.7-.7 1.1 0 .1-.1.1-.1.2l-.9 1.2c-1.7 2.1-3.9 3.8-6.4 4.9-.5.2-.9.4-1.4.5-.1 0-.2.1-.3.1l-1.2.3c-.1 0-.3.1-.4.1-.4.1-.8.1-1.2.2-.1 0-.3 0-.4.1-.5.1-1.1.1-1.6.1C13.6 75.7 6 68 6 58.6c0-.6 0-1.1.1-1.7 0-.4.1-.8.2-1.1 0-.2 0-.3.1-.5C7.8 48 14 42.2 21.5 41.6c.5 0 1-.1 1.4-.1h50.4c.5 0 1 0 1.4.1 7 .6 12.8 5.7 14.8 12.2.1.5.3 1 .4 1.5 0 .2 0 .3.1.5.1.4.1.7.2 1.1.1.5.1 1.1.1 1.7-.2 1.7-.4 3.4-.9 5zm-59.8-8.1h-4.3v-4.4c0-1.6-1.3-3-2.9-3s-2.9 1.3-2.9 3v4.4h-4.3c-1.6 0-2.9 1.3-2.9 3 0 1.6 1.3 3 2.9 3h4.3v4.4c0 1.6 1.3 3 2.9 3s2.9-1.3 2.9-3v-4.4h4.3c1.6 0 2.9-1.3 2.9-3 .1-1.7-1.2-3-2.9-3zm40.7-7.8c-.6.7-1 1.5-1 2.4 0 .9.4 1.8 1 2.4.6.6 1.5 1 2.4 1 .9 0 1.8-.4 2.4-1 .6-.6 1-1.5 1-2.4 0-.9-.4-1.8-1-2.4-1.2-1.3-3.6-1.3-4.8 0zm8.2 8.3c-.6.6-1 1.5-1 2.4 0 .9.4 1.8 1 2.4.7.7 1.5 1 2.4 1 .9 0 1.8-.4 2.4-1 .6-.7 1-1.5 1-2.4 0-.9-.4-1.8-1-2.5-1.2-1.1-3.5-1.1-4.8.1zM62 56c-.6.6-1 1.5-1 2.4 0 .9.4 1.8 1 2.4.6.6 1.5 1 2.4 1 .9 0 1.8-.4 2.4-1 .6-.6 1-1.5 1-2.4 0-.9-.4-1.8-1-2.4-1.2-1.2-3.5-1.2-4.8 0zm8.3 8.4c-.6.6-1 1.5-1 2.4 0 .9.4 1.8 1 2.4.6.6 1.5 1 2.4 1 .9 0 1.8-.4 2.4-1 .6-.7 1-1.5 1-2.4 0-.9-.4-1.8-1-2.4-1.2-1.3-3.6-1.3-4.8 0zM53 28.5c0-4 2.8-7.2 6-8.5l-3-5.5c-5.4 2.2-9.5 7.5-9.5 14H53z" fill="#0d3cff"/></svg>