<svg xmlns="http://www.w3.org/2000/svg" viewBox="0 0 96 96"><path d="M50.4 4c-.7 0-1.3.3-1.8.8-2.9 2.6-4.5 5.2-4.8 7.8s.5 4.8 1.2 6.4c.7 1.6 1.3 2.9 1.4 3.9.1 1 0 2.1-1.5 4-.6.8-.8 2-.4 2.9.4 1 1.3 1.7 2.3 1.8 1 .1 2.1-.3 2.7-1.2 2.1-2.8 2.9-5.6 2.6-8.1-.1-2.3-1.1-4.2-1.7-5.6-.6-1.4-.9-2.3-.8-3.2.1-.9.7-2.2 3-4.3 1-.8 1.3-2.2.8-3.3-.6-1.3-1.7-2-3-1.9zM38.5 8.5c-.9 0-1.7.4-2.2 1.1-1.7 2-2.6 3.9-2.8 5.8-.2 1.9.3 3.5.7 4.7.4 1.2.7 2 .7 2.7.1.7 0 1.3-.7 2.5-.6.9-.6 2-.1 3 .5.9 1.5 1.5 2.6 1.5s2.1-.6 2.6-1.5c1.2-2.1 1.7-4.2 1.5-6s-.7-3.1-1.1-4.1c-.3-1-.5-1.6-.4-2.1.1-.5.3-1.3 1.4-2.7.8-.9 1-2.1.5-3.2s-1.6-1.7-2.7-1.7zm21.2 0c-.9 0-1.7.4-2.3 1.1-1.7 2-2.6 3.9-2.8 5.8-.2 1.9.3 3.5.7 4.7.4 1.2.7 2 .8 2.7.1.7 0 1.3-.7 2.5-.6.9-.6 2-.1 3 .5.9 1.5 1.5 2.6 1.5s2.1-.6 2.6-1.5c1.2-2.1 1.7-4.2 1.5-6s-.7-3.1-1-4.1c-.3-1-.5-1.6-.4-2.1.1-.5.3-1.3 1.5-2.7.8-.9 1-2.1.5-3.2s-1.7-1.7-2.9-1.7zM10 34v3.8c0 14.3 8.1 26.8 19.9 33.2l-1 3c-4.9.1-9 4.1-9 8.9 0 4.9 4.1 9 9.1 9s9-4.1 9-9c0-2.9-1.4-5.5-3.6-7.1l.8-2.5c4 1.4 8.2 2.2 12.7 2.2s8.7-.8 12.7-2.2l2.3 6.7H45v6h19.9l2.2 5.7 5.5-1.9L66.1 71C77.9 64.6 86 52.2 86 37.8V36v-2H10zm6.1 5.9H80c-1.2 16.6-14.9 29.8-32 29.8S17.2 56.5 16.1 39.9zm8.4 3.6c-.9.1-1.7.6-2.1 1.3-.5.7-.6 1.6-.4 2.5 3.1 10.4 13 17.9 24.7 17.9 1.1 0 2-.5 2.6-1.5.5-.9.5-2 0-3-.5-.9-1.5-1.5-2.6-1.5-9.2 0-16.8-5.9-19.1-13.7-.3-1.3-1.7-2.2-3.1-2zM29 79.9c1.8 0 3.2 1.3 3.2 3.1s-1.4 3.1-3.2 3.1c-1.8 0-3.2-1.4-3.2-3.1.1-1.8 1.5-3.1 3.2-3.1z" fill="#0d3cff"/></svg>