<svg width="473" height="239" xmlns="http://www.w3.org/2000/svg"><g fill="none" fill-rule="evenodd" opacity=".5"><path d="M1.765 164.305c-.653 0-1.182-.516-1.182-1.153 0-.636.53-1.152 1.182-1.152.652 0 1.181.516 1.181 1.152 0 .637-.529 1.153-1.181 1.153zm0-18c-.653 0-1.182-.516-1.182-1.153 0-.636.53-1.152 1.182-1.152.652 0 1.181.516 1.181 1.152 0 .637-.529 1.153-1.181 1.153zm0-18c-.653 0-1.182-.516-1.182-1.153 0-.636.53-1.152 1.182-1.152.652 0 1.181.516 1.181 1.152 0 .637-.529 1.153-1.181 1.153zm0 54c-.653 0-1.182-.516-1.182-1.153 0-.636.53-1.152 1.182-1.152.652 0 1.181.516 1.181 1.152 0 .637-.529 1.153-1.181 1.153zm0 18c-.653 0-1.182-.516-1.182-1.153 0-.636.53-1.152 1.182-1.152.652 0 1.181.516 1.181 1.152 0 .637-.529 1.153-1.181 1.153zm0 18c-.653 0-1.182-.516-1.182-1.153 0-.636.53-1.152 1.182-1.152.652 0 1.181.516 1.181 1.152 0 .637-.529 1.153-1.181 1.153zm18.006-90c-.653 0-1.182-.516-1.182-1.153 0-.636.53-1.152 1.182-1.152.653 0 1.182.516 1.182 1.152 0 .637-.53 1.153-1.182 1.153zm0 18c-.653 0-1.182-.516-1.182-1.153 0-.636.53-1.152 1.182-1.152.653 0 1.182.516 1.182 1.152 0 .637-.53 1.153-1.182 1.153zm0 18c-.653 0-1.182-.516-1.182-1.153 0-.636.53-1.152 1.182-1.152.653 0 1.182.516 1.182 1.152 0 .637-.53 1.153-1.182 1.153zm0 18c-.653 0-1.182-.516-1.182-1.153 0-.636.53-1.152 1.182-1.152.653 0 1.182.516 1.182 1.152 0 .637-.53 1.153-1.182 1.153zm0 18c-.653 0-1.182-.516-1.182-1.153 0-.636.53-1.152 1.182-1.152.653 0 1.182.516 1.182 1.152 0 .637-.53 1.153-1.182 1.153zm0 18c-.653 0-1.182-.516-1.182-1.153 0-.636.53-1.152 1.182-1.152.653 0 1.182.516 1.182 1.152 0 .637-.53 1.153-1.182 1.153zm0 18c-.653 0-1.182-.516-1.182-1.153 0-.636.53-1.152 1.182-1.152.653 0 1.182.516 1.182 1.152 0 .637-.53 1.153-1.182 1.153zm18.006-90c-.652 0-1.181-.516-1.181-1.153 0-.636.529-1.152 1.181-1.152.653 0 1.182.516 1.182 1.152 0 .637-.529 1.153-1.182 1.153zm0-18c-.652 0-1.181-.516-1.181-1.153 0-.636.529-1.152 1.181-1.152.653 0 1.182.516 1.182 1.152 0 .637-.529 1.153-1.182 1.153zm1.126 38.195c-1.274 0-2.307-1.007-2.307-2.25s1.033-2.25 2.307-2.25 2.307 1.007 2.307 2.25-1.033 2.25-2.307 2.25zm0 18c-1.274 0-2.307-1.007-2.307-2.25s1.033-2.25 2.307-2.25 2.307 1.007 2.307 2.25-1.033 2.25-2.307 2.25zm0 18c-1.274 0-2.307-1.007-2.307-2.25s1.033-2.25 2.307-2.25 2.307 1.007 2.307 2.25-1.033 2.25-2.307 2.25zm0 18c-1.274 0-2.307-1.007-2.307-2.25s1.033-2.25 2.307-2.25 2.307 1.007 2.307 2.25-1.033 2.25-2.307 2.25zm0 18c-1.274 0-2.307-1.007-2.307-2.25s1.033-2.25 2.307-2.25 2.307 1.007 2.307 2.25-1.033 2.25-2.307 2.25zm16.88-110.195c-.652 0-1.18-.516-1.18-1.153 0-.636.528-1.152 1.18-1.152.653 0 1.182.516 1.182 1.152 0 .637-.529 1.153-1.181 1.153zm0 18c-.652 0-1.18-.516-1.18-1.153 0-.636.528-1.152 1.18-1.152.653 0 1.182.516 1.182 1.152 0 .637-.529 1.153-1.181 1.153zM56.91 166.5c-1.274 0-2.307-1.007-2.307-2.25S55.635 162 56.91 162s2.307 1.007 2.307 2.25-1.033 2.25-2.307 2.25zm0 18c-1.274 0-2.307-1.007-2.307-2.25S55.635 180 56.91 180s2.307 1.007 2.307 2.25-1.033 2.25-2.307 2.25zm-1.125 15.805c-.653 0-1.182-.516-1.182-1.153 0-.636.53-1.152 1.182-1.152.652 0 1.181.516 1.181 1.152 0 .637-.529 1.153-1.181 1.153zm0 18c-.653 0-1.182-.516-1.182-1.153 0-.636.53-1.152 1.182-1.152.652 0 1.181.516 1.181 1.152 0 .637-.529 1.153-1.181 1.153zm18.006-90c-.652 0-1.182-.516-1.182-1.153 0-.636.53-1.152 1.182-1.152.653 0 1.182.516 1.182 1.152 0 .637-.53 1.153-1.182 1.153zm0 18c-.652 0-1.182-.516-1.182-1.153 0-.636.53-1.152 1.182-1.152.653 0 1.182.516 1.182 1.152 0 .637-.53 1.153-1.182 1.153zm1.126 20.195c-1.275 0-2.308-1.007-2.308-2.25s1.033-2.25 2.308-2.25c1.274 0 2.307 1.007 2.307 2.25s-1.033 2.25-2.307 2.25zm-1.126 15.805c-.652 0-1.182-.516-1.182-1.153 0-.636.53-1.152 1.182-1.152.653 0 1.182.516 1.182 1.152 0 .637-.53 1.153-1.182 1.153zm0 18c-.652 0-1.182-.516-1.182-1.153 0-.636.53-1.152 1.182-1.152.653 0 1.182.516 1.182 1.152 0 .637-.53 1.153-1.182 1.153zm18.006-72c-.652 0-1.181-.516-1.181-1.153 0-.636.529-1.152 1.181-1.152.653 0 1.182.516 1.182 1.152 0 .637-.529 1.153-1.182 1.153zm0 18c-.652 0-1.181-.516-1.181-1.153 0-.636.529-1.152 1.181-1.152.653 0 1.182.516 1.182 1.152 0 .637-.529 1.153-1.182 1.153zm1.126 20.195c-1.274 0-2.307-1.007-2.307-2.25s1.033-2.25 2.307-2.25 2.307 1.007 2.307 2.25-1.033 2.25-2.307 2.25zm-1.126 15.805c-.652 0-1.181-.516-1.181-1.153 0-.636.529-1.152 1.181-1.152.653 0 1.182.516 1.182 1.152 0 .637-.529 1.153-1.182 1.153zm0 18c-.652 0-1.181-.516-1.181-1.153 0-.636.529-1.152 1.181-1.152.653 0 1.182.516 1.182 1.152 0 .637-.529 1.153-1.182 1.153zm18.007-72c-.653 0-1.182-.516-1.182-1.153 0-.636.53-1.152 1.182-1.152.652 0 1.181.516 1.181 1.152 0 .637-.529 1.153-1.181 1.153zm0 18c-.653 0-1.182-.516-1.182-1.153 0-.636.53-1.152 1.182-1.152.652 0 1.181.516 1.181 1.152 0 .637-.529 1.153-1.181 1.153zm1.125 20.195c-1.274 0-2.307-1.007-2.307-2.25s1.033-2.25 2.307-2.25 2.307 1.007 2.307 2.25-1.033 2.25-2.307 2.25zm-1.125 15.805c-.653 0-1.182-.516-1.182-1.153 0-.636.53-1.152 1.182-1.152.652 0 1.181.516 1.181 1.152 0 .637-.529 1.153-1.181 1.153zm1.125 20.195c-1.274 0-2.307-1.007-2.307-2.25s1.033-2.25 2.307-2.25 2.307 1.007 2.307 2.25-1.033 2.25-2.307 2.25zm-1.125 15.805c-.653 0-1.182-.516-1.182-1.153 0-.636.53-1.152 1.182-1.152.652 0 1.181.516 1.181 1.152 0 .637-.529 1.153-1.181 1.153z" fill="#FAA"/><g fill-rule="nonzero"><path d="M258.299 219.375h11.254v-17.794l-11.254 11.25v6.544zm-213.825 0v-49.5h170.853l11.254-11.25H33.22v60.75h11.255z" stroke="#FAA" stroke-width="2.25"/><path d="M45.599 220.5H32.094v-63h197.204L215.793 171H45.6v49.5z" fill="#0D3CFF"/></g><g transform="translate(214.408 -3)" stroke-width="2.25"><path d="M36.013 183l69.774-69.75" stroke="#0D3CFF" stroke-linecap="round"/><path d="M81.029 158.25l53.474-53.456" stroke="#FAA" stroke-linecap="round"/><path d="M76.527 183L259.212.38" stroke="#0D3CFF" stroke-linecap="round"/><path d="M38.263 160.5l37.566-37.552" stroke="#FAA" stroke-linecap="round"/><path d="M76.527 201l6.752-6.75M.125 230.125L29.26 201M21.64 152.368L36.013 138M66.656 226.618l14.373-14.368" stroke="#0D3CFF" stroke-linecap="round"/><path d="M4.502 194.25l18.006-18" stroke="#FAA" stroke-linecap="round"/><ellipse stroke="#0D3CFF" fill="none" cx="54.019" cy="237" rx="3.377" ry="3.375"/><ellipse stroke="#0D3CFF" fill="none" cx="50.643" cy="123.375" rx="4.502" ry="4.5"/></g></g></svg>