<svg width="557" height="300" xmlns="http://www.w3.org/2000/svg"><g fill="none" fill-rule="evenodd" opacity=".5"><path d="M444.838 2.805c-.653 0-1.182-.516-1.182-1.153 0-.636.53-1.152 1.182-1.152.652 0 1.181.516 1.181 1.152 0 .637-.529 1.153-1.181 1.153zm0 18c-.653 0-1.182-.516-1.182-1.153 0-.636.53-1.152 1.182-1.152.652 0 1.181.516 1.181 1.152 0 .637-.529 1.153-1.181 1.153zM445.963 41c-1.274 0-2.307-1.007-2.307-2.25s1.033-2.25 2.307-2.25 2.307 1.007 2.307 2.25-1.033 2.25-2.307 2.25zm-1.125 15.805c-.653 0-1.182-.516-1.182-1.153 0-.636.53-1.152 1.182-1.152.652 0 1.181.516 1.181 1.152 0 .637-.529 1.153-1.181 1.153zm18.006-54c-.653 0-1.182-.516-1.182-1.153 0-.636.53-1.152 1.182-1.152.653 0 1.182.516 1.182 1.152 0 .637-.53 1.153-1.182 1.153zm0 18c-.653 0-1.182-.516-1.182-1.153 0-.636.53-1.152 1.182-1.152.653 0 1.182.516 1.182 1.152 0 .637-.53 1.153-1.182 1.153zm0 18c-.653 0-1.182-.516-1.182-1.153 0-.636.53-1.152 1.182-1.152.653 0 1.182.516 1.182 1.152 0 .637-.53 1.153-1.182 1.153zm0 18c-.653 0-1.182-.516-1.182-1.153 0-.636.53-1.152 1.182-1.152.653 0 1.182.516 1.182 1.152 0 .637-.53 1.153-1.182 1.153zM463.97 77c-1.274 0-2.307-1.007-2.307-2.25s1.033-2.25 2.307-2.25c1.275 0 2.308 1.007 2.308 2.25S465.244 77 463.969 77zm-1.125 15.805c-.653 0-1.182-.516-1.182-1.153 0-.636.53-1.152 1.182-1.152.653 0 1.182.516 1.182 1.152 0 .637-.53 1.153-1.182 1.153zm0 18c-.653 0-1.182-.516-1.182-1.153 0-.636.53-1.152 1.182-1.152.653 0 1.182.516 1.182 1.152 0 .637-.53 1.153-1.182 1.153zm18.006-108c-.652 0-1.181-.516-1.181-1.153 0-.636.529-1.152 1.181-1.152.653 0 1.182.516 1.182 1.152 0 .637-.529 1.153-1.182 1.153zm0 18c-.652 0-1.181-.516-1.181-1.153 0-.636.529-1.152 1.181-1.152.653 0 1.182.516 1.182 1.152 0 .637-.529 1.153-1.182 1.153zm0 18c-.652 0-1.181-.516-1.181-1.153 0-.636.529-1.152 1.181-1.152.653 0 1.182.516 1.182 1.152 0 .637-.529 1.153-1.182 1.153zm0 18c-.652 0-1.181-.516-1.181-1.153 0-.636.529-1.152 1.181-1.152.653 0 1.182.516 1.182 1.152 0 .637-.529 1.153-1.182 1.153zM481.976 77c-1.274 0-2.307-1.007-2.307-2.25s1.033-2.25 2.307-2.25 2.307 1.007 2.307 2.25S483.25 77 481.976 77zm0 18c-1.274 0-2.307-1.007-2.307-2.25s1.033-2.25 2.307-2.25 2.307 1.007 2.307 2.25S483.25 95 481.976 95zm-1.126 15.805c-.652 0-1.181-.516-1.181-1.153 0-.636.529-1.152 1.181-1.152.653 0 1.182.516 1.182 1.152 0 .637-.529 1.153-1.182 1.153zM499.982 5c-1.274 0-2.307-1.007-2.307-2.25S498.708.5 499.982.5s2.307 1.007 2.307 2.25S501.256 5 499.982 5zm0 18c-1.274 0-2.307-1.007-2.307-2.25s1.033-2.25 2.307-2.25 2.307 1.007 2.307 2.25-1.033 2.25-2.307 2.25zm0 18c-1.274 0-2.307-1.007-2.307-2.25s1.033-2.25 2.307-2.25 2.307 1.007 2.307 2.25-1.033 2.25-2.307 2.25zm0 18c-1.274 0-2.307-1.007-2.307-2.25s1.033-2.25 2.307-2.25 2.307 1.007 2.307 2.25-1.033 2.25-2.307 2.25zm0 18c-1.274 0-2.307-1.007-2.307-2.25s1.033-2.25 2.307-2.25 2.307 1.007 2.307 2.25-1.033 2.25-2.307 2.25zm-1.125 15.805c-.653 0-1.182-.516-1.182-1.153 0-.636.53-1.152 1.182-1.152.652 0 1.181.516 1.181 1.152 0 .637-.529 1.153-1.181 1.153zm18.006-90c-.652 0-1.182-.516-1.182-1.153 0-.636.53-1.152 1.182-1.152.653 0 1.182.516 1.182 1.152 0 .637-.53 1.153-1.182 1.153zm0 18c-.652 0-1.182-.516-1.182-1.153 0-.636.53-1.152 1.182-1.152.653 0 1.182.516 1.182 1.152 0 .637-.53 1.153-1.182 1.153zm0 18c-.652 0-1.182-.516-1.182-1.153 0-.636.53-1.152 1.182-1.152.653 0 1.182.516 1.182 1.152 0 .637-.53 1.153-1.182 1.153zm0 18c-.652 0-1.182-.516-1.182-1.153 0-.636.53-1.152 1.182-1.152.653 0 1.182.516 1.182 1.152 0 .637-.53 1.153-1.182 1.153zm0 18c-.652 0-1.182-.516-1.182-1.153 0-.636.53-1.152 1.182-1.152.653 0 1.182.516 1.182 1.152 0 .637-.53 1.153-1.182 1.153zm0 18c-.652 0-1.182-.516-1.182-1.153 0-.636.53-1.152 1.182-1.152.653 0 1.182.516 1.182 1.152 0 .637-.53 1.153-1.182 1.153zm0 18c-.652 0-1.182-.516-1.182-1.153 0-.636.53-1.152 1.182-1.152.653 0 1.182.516 1.182 1.152 0 .637-.53 1.153-1.182 1.153zm18.006-108c-.652 0-1.181-.516-1.181-1.153 0-.636.529-1.152 1.181-1.152.653 0 1.182.516 1.182 1.152 0 .637-.529 1.153-1.182 1.153zm0 18c-.652 0-1.181-.516-1.181-1.153 0-.636.529-1.152 1.181-1.152.653 0 1.182.516 1.182 1.152 0 .637-.529 1.153-1.182 1.153zm0 18c-.652 0-1.181-.516-1.181-1.153 0-.636.529-1.152 1.181-1.152.653 0 1.182.516 1.182 1.152 0 .637-.529 1.153-1.182 1.153zm0 18c-.652 0-1.181-.516-1.181-1.153 0-.636.529-1.152 1.181-1.152.653 0 1.182.516 1.182 1.152 0 .637-.529 1.153-1.182 1.153zm0 18c-.652 0-1.181-.516-1.181-1.153 0-.636.529-1.152 1.181-1.152.653 0 1.182.516 1.182 1.152 0 .637-.529 1.153-1.182 1.153zm0 18c-.652 0-1.181-.516-1.181-1.153 0-.636.529-1.152 1.181-1.152.653 0 1.182.516 1.182 1.152 0 .637-.529 1.153-1.182 1.153zm18.007-90c-.653 0-1.182-.516-1.182-1.153 0-.636.53-1.152 1.182-1.152.652 0 1.182.516 1.182 1.152 0 .637-.53 1.153-1.182 1.153zm0 18c-.653 0-1.182-.516-1.182-1.153 0-.636.53-1.152 1.182-1.152.652 0 1.182.516 1.182 1.152 0 .637-.53 1.153-1.182 1.153zm0 18c-.653 0-1.182-.516-1.182-1.153 0-.636.53-1.152 1.182-1.152.652 0 1.182.516 1.182 1.152 0 .637-.53 1.153-1.182 1.153zM554 59c-1.274 0-2.307-1.007-2.307-2.25s1.033-2.25 2.307-2.25 2.307 1.007 2.307 2.25-1.033 2.25-2.307 2.25zm-1.125 15.805c-.653 0-1.182-.516-1.182-1.153 0-.636.53-1.152 1.182-1.152.652 0 1.182.516 1.182 1.152 0 .637-.53 1.153-1.182 1.153zm0 18c-.653 0-1.182-.516-1.182-1.153 0-.636.53-1.152 1.182-1.152.652 0 1.182.516 1.182 1.152 0 .637-.53 1.153-1.182 1.153z" fill="#FAA"/><g fill-rule="nonzero"><path d="M494.299 17.375v48.589h-59.646v41.993l-42.177-41.993h-68.12l-11.253 11.25h74.724l58.08 57.828V77.214h59.646V17.375H494.3zm-213.825 0h-11.255v17.794l11.255-11.25v-6.544z" stroke="#FAA" stroke-width="2.25"/><path d="M493.174 16.25h13.504v62.089h-59.646v59.411l-59.67-59.411h-76.976l13.505-13.5h69.05l40.587 40.41V64.84h59.646V16.25z" fill="#0D3CFF"/></g><g transform="translate(1 9.5)" stroke-width="2.25"><path d="M219.828 105.75l23.663-23.655M335.057 31.061l6.188-6.185" stroke="#0D3CFF" stroke-linecap="round"/><path d="M327.866 63l21.546-21.539" stroke="#FAA" stroke-linecap="round"/><path d="M262.593 67.5l42.067-42.052" stroke="#0D3CFF" stroke-linecap="round"/><path d="M271.596 38.25l31.51-31.5M263.718 93.375L312.11 45" stroke="#FAA" stroke-linecap="round"/><path d="M316.737 29.125L345.872 0M241.467 50.368L255.84 36" stroke="#0D3CFF" stroke-linecap="round"/><path d="M.263 289.237L208.573 81" stroke="#FAA" stroke-linecap="round"/><ellipse stroke="#FAA" fill="none" cx="291.853" cy="96.75" rx="3.377" ry="3.375"/><ellipse stroke="#0D3CFF" fill="none" cx="247.962" cy="5.625" rx="4.502" ry="4.5"/><ellipse stroke="#FAA" fill="none" cx="228.831" cy="60.75" rx="5.627" ry="5.625"/></g></g></svg>