<svg xmlns="http://www.w3.org/2000/svg" viewBox="0 0 923 800"><g transform="translate(2 -16)" opacity=".5"><path fill-rule="evenodd" clip-rule="evenodd" fill="#FAA" d="M591.6 419.1c-.9 0-1.6-.7-1.6-1.5s.7-1.5 1.6-1.5c.9 0 1.6.7 1.6 1.5s-.8 1.5-1.6 1.5zm0 24c-.9 0-1.6-.7-1.6-1.5s.7-1.5 1.6-1.5c.9 0 1.6.7 1.6 1.5s-.8 1.5-1.6 1.5zm1.5 26.9c-1.7 0-3.1-1.3-3.1-3s1.4-3 3.1-3c1.7 0 3.1 1.3 3.1 3s-1.4 3-3.1 3zm-1.5 21.1c-.9 0-1.6-.7-1.6-1.5s.7-1.5 1.6-1.5c.9 0 1.6.7 1.6 1.5s-.8 1.5-1.6 1.5zm24-72c-.9 0-1.6-.7-1.6-1.5s.7-1.5 1.6-1.5c.9 0 1.6.7 1.6 1.5s-.8 1.5-1.6 1.5zm0 24c-.9 0-1.6-.7-1.6-1.5s.7-1.5 1.6-1.5c.9 0 1.6.7 1.6 1.5s-.8 1.5-1.6 1.5zm0 24c-.9 0-1.6-.7-1.6-1.5s.7-1.5 1.6-1.5c.9 0 1.6.7 1.6 1.5s-.8 1.5-1.6 1.5zm0 24c-.9 0-1.6-.7-1.6-1.5s.7-1.5 1.6-1.5c.9 0 1.6.7 1.6 1.5s-.8 1.5-1.6 1.5zm1.5 26.9c-1.7 0-3.1-1.3-3.1-3s1.4-3 3.1-3c1.7 0 3.1 1.3 3.1 3s-1.4 3-3.1 3zm-1.5 21.1c-.9 0-1.6-.7-1.6-1.5s.7-1.5 1.6-1.5c.9 0 1.6.7 1.6 1.5s-.8 1.5-1.6 1.5zm0 24c-.9 0-1.6-.7-1.6-1.5s.7-1.5 1.6-1.5c.9 0 1.6.7 1.6 1.5s-.8 1.5-1.6 1.5zm24-144c-.9 0-1.6-.7-1.6-1.5s.7-1.5 1.6-1.5c.9 0 1.6.7 1.6 1.5s-.8 1.5-1.6 1.5zm0 24c-.9 0-1.6-.7-1.6-1.5s.7-1.5 1.6-1.5c.9 0 1.6.7 1.6 1.5s-.8 1.5-1.6 1.5zm0 24c-.9 0-1.6-.7-1.6-1.5s.7-1.5 1.6-1.5c.9 0 1.6.7 1.6 1.5s-.8 1.5-1.6 1.5zm0 24c-.9 0-1.6-.7-1.6-1.5s.7-1.5 1.6-1.5c.9 0 1.6.7 1.6 1.5s-.8 1.5-1.6 1.5zm1.5 26.9c-1.7 0-3.1-1.3-3.1-3s1.4-3 3.1-3c1.7 0 3.1 1.3 3.1 3s-1.4 3-3.1 3zm0 24c-1.7 0-3.1-1.3-3.1-3s1.4-3 3.1-3c1.7 0 3.1 1.3 3.1 3s-1.4 3-3.1 3zm-1.5 21.1c-.9 0-1.6-.7-1.6-1.5s.7-1.5 1.6-1.5c.9 0 1.6.7 1.6 1.5s-.8 1.5-1.6 1.5zM665.1 422c-1.7 0-3.1-1.3-3.1-3s1.4-3 3.1-3c1.7 0 3.1 1.3 3.1 3s-1.4 3-3.1 3zm0 24c-1.7 0-3.1-1.3-3.1-3s1.4-3 3.1-3c1.7 0 3.1 1.3 3.1 3s-1.4 3-3.1 3zm0 24c-1.7 0-3.1-1.3-3.1-3s1.4-3 3.1-3c1.7 0 3.1 1.3 3.1 3s-1.4 3-3.1 3zm0 24c-1.7 0-3.1-1.3-3.1-3s1.4-3 3.1-3c1.7 0 3.1 1.3 3.1 3s-1.4 3-3.1 3zm0 24c-1.7 0-3.1-1.3-3.1-3s1.4-3 3.1-3c1.7 0 3.1 1.3 3.1 3s-1.4 3-3.1 3zm-1.5 21.1c-.9 0-1.6-.7-1.6-1.5s.7-1.5 1.6-1.5c.9 0 1.6.7 1.6 1.5s-.8 1.5-1.6 1.5zm24-120c-.9 0-1.6-.7-1.6-1.5s.7-1.5 1.6-1.5c.9 0 1.6.7 1.6 1.5s-.8 1.5-1.6 1.5zm0 24c-.9 0-1.6-.7-1.6-1.5s.7-1.5 1.6-1.5c.9 0 1.6.7 1.6 1.5s-.8 1.5-1.6 1.5zm0 24c-.9 0-1.6-.7-1.6-1.5s.7-1.5 1.6-1.5c.9 0 1.6.7 1.6 1.5s-.8 1.5-1.6 1.5zm0 24c-.9 0-1.6-.7-1.6-1.5s.7-1.5 1.6-1.5c.9 0 1.6.7 1.6 1.5s-.8 1.5-1.6 1.5zm0 24c-.9 0-1.6-.7-1.6-1.5s.7-1.5 1.6-1.5c.9 0 1.6.7 1.6 1.5s-.8 1.5-1.6 1.5zm0 24c-.9 0-1.6-.7-1.6-1.5s.7-1.5 1.6-1.5c.9 0 1.6.7 1.6 1.5s-.8 1.5-1.6 1.5zm0 24c-.9 0-1.6-.7-1.6-1.5s.7-1.5 1.6-1.5c.9 0 1.6.7 1.6 1.5s-.8 1.5-1.6 1.5zm24-144c-.9 0-1.6-.7-1.6-1.5s.7-1.5 1.6-1.5c.9 0 1.6.7 1.6 1.5s-.8 1.5-1.6 1.5zm0 24c-.9 0-1.6-.7-1.6-1.5s.7-1.5 1.6-1.5c.9 0 1.6.7 1.6 1.5s-.8 1.5-1.6 1.5zm0 24c-.9 0-1.6-.7-1.6-1.5s.7-1.5 1.6-1.5c.9 0 1.6.7 1.6 1.5s-.8 1.5-1.6 1.5zm0 24c-.9 0-1.6-.7-1.6-1.5s.7-1.5 1.6-1.5c.9 0 1.6.7 1.6 1.5s-.8 1.5-1.6 1.5zm0 24c-.9 0-1.6-.7-1.6-1.5s.7-1.5 1.6-1.5c.9 0 1.6.7 1.6 1.5s-.8 1.5-1.6 1.5zm0 24c-.9 0-1.6-.7-1.6-1.5s.7-1.5 1.6-1.5c.9 0 1.6.7 1.6 1.5s-.8 1.5-1.6 1.5zm24-120c-.9 0-1.6-.7-1.6-1.5s.7-1.5 1.6-1.5c.9 0 1.6.7 1.6 1.5s-.8 1.5-1.6 1.5zm0 24c-.9 0-1.6-.7-1.6-1.5s.7-1.5 1.6-1.5c.9 0 1.6.7 1.6 1.5s-.8 1.5-1.6 1.5zm0 24c-.9 0-1.6-.7-1.6-1.5s.7-1.5 1.6-1.5c.9 0 1.6.7 1.6 1.5s-.8 1.5-1.6 1.5zm1.5 26.9c-1.7 0-3.1-1.3-3.1-3s1.4-3 3.1-3c1.7 0 3.1 1.3 3.1 3s-1.4 3-3.1 3zm-1.5 21.1c-.9 0-1.6-.7-1.6-1.5s.7-1.5 1.6-1.5c.9 0 1.6.7 1.6 1.5s-.8 1.5-1.6 1.5zm0 24c-.9 0-1.6-.7-1.6-1.5s.7-1.5 1.6-1.5c.9 0 1.6.7 1.6 1.5s-.8 1.5-1.6 1.5z"/><path fill="none" stroke="#FAA" stroke-width="3" d="M657.5 285.5h15v-23.7l-15 15v8.7zm0 153v64.8H578v56l-56.2-56H431l-15 15h99.6l77.4 77.1v-77.1h79.5v-79.8h-15zm-285-153v-66h227.7l15-15H357.5v81h15zm0 153h-15v23.7l15-15v-8.7z"/><path fill="#0D3CFF" d="M656 437h18v82.8h-79.5V599L515 519.8H412.4l18-18h92l54.1 53.9v-53.9H656V437zM374 287h-18v-84h262.8l-18 18H374v66z"/><path fill="none" stroke="#0D3CFF" stroke-width="3" stroke-linecap="round" d="M293 569l31.5-31.5M446.6 469.4l8.2-8.2"/><path fill="none" stroke="#FAA" stroke-width="3" stroke-linecap="round" d="M707 200l71.3-71.3"/><path fill="none" stroke="#0D3CFF" stroke-width="3" stroke-linecap="round" d="M701 233L933.5.5"/><path fill="none" stroke="#FAA" stroke-width="3" stroke-linecap="round" d="M437 512l28.7-28.7M650 203l50.1-50.1"/><path fill="none" stroke="#0D3CFF" stroke-width="3" stroke-linecap="round" d="M701 257l9-9"/><path fill="none" stroke="#FAA" stroke-width="3" stroke-linecap="round" d="M362 479l42-42M351.5 552.5L416 488"/><path fill="none" stroke="#0D3CFF" stroke-width="3" stroke-linecap="round" d="M599.2 295.8L638 257M422.2 466.8L461 428M627.8 192.2L647 173M687.8 291.2L707 272M321.8 495.2L341 476"/><path fill="none" stroke="#FAA" stroke-width="3" stroke-linecap="round" d="M.4 813.6L278 536M605 248l24-24"/><circle clip-rule="evenodd" fill="none" stroke="#0D3CFF" stroke-width="3" cx="671" cy="305" r="4.5"/><circle clip-rule="evenodd" fill="none" stroke="#FAA" stroke-width="3" cx="389" cy="557" r="4.5"/><circle clip-rule="evenodd" fill="none" stroke="#0D3CFF" stroke-width="3" cx="666.5" cy="153.5" r="6"/><circle clip-rule="evenodd" fill="none" stroke="#0D3CFF" stroke-width="3" cx="330.5" cy="435.5" r="6"/><circle clip-rule="evenodd" fill="none" stroke="#FAA" stroke-width="3" cx="305" cy="509" r="7.5"/></g></svg>