<svg xmlns="http://www.w3.org/2000/svg" viewBox="0 0 32 32"><path fill="#0D3CFF" d="M15 10.8c-1.2-.4-2-1.5-2-2.8 0-1.7 1.3-3 3-3s3 1.3 3 3c0 1.3-.8 2.4-2 2.8V12c0 .6-.4 1-1 1s-1-.4-1-1v-1.2zM8.5 20C6 20 4 18 4 15.5S6 11 8.5 11s4.5 2 4.5 4.5S11 20 8.5 20zm0-2c1.4 0 2.5-1.1 2.5-2.5S9.9 13 8.5 13 6 14.1 6 15.5 7.1 18 8.5 18zm15 2C21 20 19 18 19 15.5s2-4.5 4.5-4.5 4.5 2 4.5 4.5-2 4.5-4.5 4.5zm0-2c1.4 0 2.5-1.1 2.5-2.5S24.9 13 23.5 13 21 14.1 21 15.5s1.1 2.5 2.5 2.5zM6 21h5c3.3 0 6 2.7 6 6v3H0v-3c0-3.3 2.7-6 6-6zm-.7 2C3.5 23 2 24.5 2 26.3V28h13v-1.7c0-1.8-1.5-3.3-3.3-3.3H5.3zM21 21h5c3.3 0 6 2.7 6 6v3H15v-3c0-3.3 2.7-6 6-6zm-.7 2c-1.8 0-3.3 1.5-3.3 3.3V28h13v-1.7c0-1.8-1.5-3.3-3.3-3.3h-6.4zM12 4c-.6 0-1-.4-1-1s.4-1 1-1 1 .4 1 1-.4 1-1 1zm8 0c-.6 0-1-.4-1-1s.4-1 1-1 1 .4 1 1-.4 1-1 1zm2 3c-.6 0-1-.4-1-1s.4-1 1-1 1 .4 1 1-.4 1-1 1zM10 7c-.6 0-1-.4-1-1s.4-1 1-1 1 .4 1 1-.4 1-1 1z"/></svg>