<svg xmlns="http://www.w3.org/2000/svg" viewBox="0 0 306 306"><path fill-rule="evenodd" clip-rule="evenodd" fill="#FAA" d="M181 6.1c-1.7 0-3.1-1.4-3.1-3.1s1.4-3 3.1-3c1.7 0 3.1 1.4 3.1 3.1s-1.4 3-3.1 3zm0 48c-1.7 0-3.1-1.4-3.1-3.1 0-1.7 1.4-3.1 3.1-3.1 1.7 0 3.1 1.4 3.1 3.1 0 1.7-1.4 3.1-3.1 3.1zm0 48c-1.7 0-3.1-1.4-3.1-3.1s1.4-3.1 3.1-3.1c1.7 0 3.1 1.4 3.1 3.1s-1.4 3.1-3.1 3.1zm0 48c-1.7 0-3.1-1.4-3.1-3.1s1.4-3.1 3.1-3.1c1.7 0 3.1 1.4 3.1 3.1s-1.4 3.1-3.1 3.1zm0 47.9c-1.7 0-3.1-1.4-3.1-3.1s1.4-3.1 3.1-3.1c1.7 0 3.1 1.4 3.1 3.1s-1.4 3.1-3.1 3.1zm0 48c-1.7 0-3.1-1.4-3.1-3.1s1.4-3.1 3.1-3.1c1.7 0 3.1 1.4 3.1 3.1s-1.4 3.1-3.1 3.1zM229 6.1c-1.7 0-3.1-1.4-3.1-3.1s1.3-3 3.1-3 3.1 1.4 3.1 3.1-1.4 3-3.1 3zm0 48c-1.7 0-3.1-1.4-3.1-3.1 0-1.7 1.4-3.1 3.1-3.1s3.1 1.4 3.1 3.1c0 1.7-1.4 3.1-3.1 3.1zm0 48c-1.7 0-3.1-1.4-3.1-3.1s1.4-3.1 3.1-3.1 3.1 1.4 3.1 3.1-1.4 3.1-3.1 3.1zm1 53.8c-3.4 0-6.1-2.7-6.1-6s2.8-6 6.1-6 6.1 2.7 6.1 6-2.8 6-6.1 6zm-1 42.1c-1.7 0-3.1-1.4-3.1-3.1s1.4-3.1 3.1-3.1 3.1 1.4 3.1 3.1-1.4 3.1-3.1 3.1zm0 48c-1.7 0-3.1-1.4-3.1-3.1s1.4-3.1 3.1-3.1 3.1 1.4 3.1 3.1-1.4 3.1-3.1 3.1z"/><path fill="none" stroke="#FAA" stroke-width="2" d="M1 3h302L1 305"/></svg>