<svg xmlns="http://www.w3.org/2000/svg" viewBox="0 0 32 32"><path fill="#0D3CFF" d="M12.3 9.6L10.4 7H7v22h18V7h-3.4l-1.9 2.6c.8.9 1.3 2.1 1.3 3.4 0 2.8-2.2 5-5 5s-5-2.2-5-5c0-1.3.5-2.5 1.3-3.4zm1.2 1.7c-.3.5-.5 1.1-.5 1.7 0 1.7 1.3 3 3 3s3-1.3 3-3-1.3-3-3-3c-.3 0-.6 0-.9.1l.9 1.2.5-.7 1.6 1.2-1.3 1.8c-.4.5-1.2.5-1.6 0l-1.7-2.3zm.4-2.9c.7-.2 1.4-.4 2.1-.4.7 0 1.4.2 2.1.4l1-1.4h-6.3l1.1 1.4zM8.9 5L7.2 2.6l1.6-1.2L11.4 5h9.2l2.6-3.6 1.6 1.2L23.1 5H27v26H5V5h3.9zM10 22v-2h12v2H10zm0 4v-2h6v2h-6z"/></svg>