<svg xmlns="http://www.w3.org/2000/svg" viewBox="0 0 411 615"><path opacity=".2" fill="#FAA" d="M100.3 354.5c-.4 0-.8-.1-1.1-.4-.6-.6-.6-1.5 0-2.1l130.7-131c.6-.6 1.5-.6 2.1 0 .6.6.6 1.5 0 2.1l-130.7 131c-.2.3-.6.4-1 .4z"/><path opacity=".2" fill="#0D3CFF" d="M287.5 317c-.4 0-.8-.1-1.1-.4-.6-.6-.6-1.5 0-2.1L407.9 193c.6-.6 1.5-.6 2.1 0 .6.6.6 1.5 0 2.1L288.6 316.5c-.3.3-.7.5-1.1.5z"/><path fill="#0D3CFF" d="M63 476.5c-.4 0-.8-.1-1.1-.4-.6-.6-.6-1.5 0-2.1L237 298.8c.6-.6 1.5-.6 2.1 0 .6.6.6 1.5 0 2.1l-175 175.2c-.3.3-.7.4-1.1.4z"/><circle clip-rule="evenodd" fill="none" cx="184.5" cy="596.5" r="17"/><path fill="#FAA" d="M184.5 615c-10.2 0-18.5-8.3-18.5-18.5s8.3-18.5 18.5-18.5 18.5 8.3 18.5 18.5-8.3 18.5-18.5 18.5zm0-34c-8.5 0-15.5 7-15.5 15.5s7 15.5 15.5 15.5 15.5-7 15.5-15.5-7-15.5-15.5-15.5z"/><path opacity=".2" fill="#FAA" d="M67.7 583.8c-.4 0-.8-.1-1.1-.4-.6-.6-.6-1.5 0-2.1L267.9 380c.6-.6 1.5-.6 2.1 0s.6 1.5 0 2.1L68.7 583.4c-.3.3-.6.4-1 .4z"/><path fill="#0D3CFF" d="M35.7 342.3c-.6-.6-1.5-.6-2.1 0L0 375.9v4.2l35.7-35.7c.6-.6.6-1.5 0-2.1z"/><path fill="#FAA" d="M25.1 206.9c-.6-.6-1.5-.6-2.1 0l-23 23v4.2L25.1 209c.5-.5.5-1.5 0-2.1z"/><path fill="#0D3CFF" d="M59.9 0l-26 25.9c-.6.6-.6 1.5 0 2.1.3.3.7.4 1.1.4s.8-.1 1.1-.4l28-28h-4.2z"/></svg>