<svg xmlns="http://www.w3.org/2000/svg" viewBox="0 0 381 201"><path fill="#0D3CFF" d="M1.5 201c-.4 0-.8-.1-1.1-.4-.6-.6-.6-1.5 0-2.1L98.9 100c.6-.6 1.5-.6 2.1 0s.6 1.5 0 2.1L2.6 200.6c-.3.3-.7.4-1.1.4z"/><path opacity=".2" fill="#FAA" d="M9.5 118c-.4 0-.8-.1-1.1-.4-.6-.6-.6-1.5 0-2.1L73.9 50c.6-.6 1.5-.6 2.1 0 .6.6.6 1.5 0 2.1l-65.5 65.5c-.2.3-.6.4-1 .4z"/><path fill="#FAA" d="M299.5 182c-10.2 0-18.5-8.3-18.5-18.5s8.3-18.5 18.5-18.5 18.5 8.3 18.5 18.5-8.3 18.5-18.5 18.5zm0-34c-8.5 0-15.5 7-15.5 15.5s7 15.5 15.5 15.5 15.5-7 15.5-15.5-7-15.5-15.5-15.5zM61.3 0c.4 1.9.7 3.9.7 6 0 13.8-11.2 25-25 25S12 19.8 12 6c0-2.1.3-4.1.7-6h-3C9.2 1.9 9 3.9 9 6c0 15.4 12.6 28 28 28S65 21.4 65 6c0-2.1-.2-4.1-.7-6h-3z"/><path opacity=".2" fill="#FAA" d="M329.9 0L181.6 148.3c-.6.6-.6 1.5 0 2.1.3.3.7.4 1.1.4s.8-.1 1.1-.4L334.1 0h-4.2z"/><path fill="#0D3CFF" d="M121.9 0l-17.2 17.2c-.6.6-.6 1.5 0 2.1.3.3.7.4 1.1.4s.8-.1 1.1-.4L126.1 0h-4.2zM217.9 0L177 40.9c-.6.6-.6 1.5 0 2.1.3.3.7.4 1.1.4s.8-.1 1.1-.4l42.9-43h-4.2z"/><path fill="#FAA" d="M381 69.9l-35.5 35.5c-.6.6-.6 1.5 0 2.1.3.3.7.4 1.1.4s.8-.1 1.1-.4L381 74.1v-4.2z"/></svg>