<svg xmlns="http://www.w3.org/2000/svg" viewBox="0 0 179 48"><path fill-rule="evenodd" clip-rule="evenodd" fill="#FFF" d="M24.3 24.2c0 1.2-.9 2.1-2.1 2.1-1.2 0-2.1-.9-2.1-2.1s.9-2.1 2.1-2.1c1.2 0 2.1 1 2.1 2.1"/><path fill-rule="evenodd" clip-rule="evenodd" fill="#FFF" d="M42.6 35c-.1.3-.3.6-.5.8-.3.2-.6.3-1 .4-.6.1-1.2 0-1.8-.1.1-.1.1-.1.1-.2.5.1 1 .1 1.5 0 .4-.1.8-.3 1-.7.2-.3.3-.8.3-1.1 0-.8-.5-1.5-.9-2.1-.4-.6-.9-1.3-1.4-1.9-1-1.2-2-2.3-3.1-3.4l-2.4-2.1c-.3-.3-.6-.5-.8-.8.2-.1.4-.3.6-.4 2.4 1.6 4.7 3.3 6.3 5.5.9 1.2 1.6 2.6 2 4 .1.6.3 1.4.1 2.1zm-13.7 2.3c-.2 1.5-.5 3.1-1.1 4.5 0 .1-.1.2-.1.3.5-2.6.8-5.2.9-7.8.2.1.3.1.5.2 0 .9-.1 1.9-.2 2.8zM25.2 47c-.2.2-.5.3-.8.4.1-.1.2-.2.2-.3.2-.2.3-.4.5-.6 0-.1.1-.1.1-.2.2-.1.3-.2.5-.3.2-.1.3-.3.5-.4-.3.6-.6 1-1 1.4zm-3.9-.4c-.5-.6-.8-1.3-1.1-2 0-.1-.1-.2-.1-.3.1.1.1.1.1.2.2.5.4.9.7 1.4.2.3.4.6.6 1-.1-.1-.2-.2-.2-.3zm-4.2-12.4c.2.6.3 1.2.5 1.9.2 1.2.4 2.4.7 3.6-.7-1.7-1.1-3.5-1.5-5.3.1-.1.2-.2.3-.2zm-5.5 1.3c-.9.2-1.9.4-2.8.5-.5.1-.9.1-1.4.2-.5.1-.9.1-1.4.1-.5 0-.9-.1-1.3-.3-.2-.1-.3-.2-.3-.3 0-.1 0-.2.1-.3H5c1-.1 1.9-.2 2.9-.4 1.9-.3 3.8-.8 5.6-1.3.9-.3 1.7-.5 2.6-.8.1.4.1.8.2 1.2-1.6.5-3.2 1-4.7 1.4zm-8.1-.2c-.5 0-1 .1-1.4 0-.2-.1-.4-.2-.5-.4-.1-.2 0-.4.1-.6.2-.3.5-.6.8-.9l.1.1c.1.1.3.2.4.3.4.2.8.2 1.3.3v.3s0 .1.1.2c-.1.1-.2.3-.2.4-.1 0-.2.1-.2.2-.2.1-.4.1-.5.1zm-1.9-4c0-.4.3-.8.6-1.1.3-.4.6-.7.9-1.1.7-.7 1.4-1.3 2.1-1.9 1.3-1.1 2.7-2.1 4.1-3.1.4.3.8.6 1.3.9-.1.1-.2.1-.2.2-.2.2-.4.3-.6.5-.8.6-1.6 1.1-2.3 1.8-.4.3-.7.7-1 1.1-.2.2-.4.3-.6.5-.7.6-1.5 1.2-2.2 1.9-.3.3-.7.7-1 1.2-.1.1-.1.2-.2.3-.1-.1-.2-.1-.3-.2-.4-.3-.6-.6-.6-1zM.4 15.7c-.1-.2-.2-.3-.2-.5s.1-.3.2-.4c.1 0 .2-.1.3-.1-.1.3 0 .6.1.8 0 .2-.1.4 0 .5 0 .2.1.3.2.5-.2-.2-.4-.5-.6-.8zm1.1-1.6h-.2c-.1-.3-.3-.6-.2-.8.1.3.2.6.4.8zm-.4-2.8c.1-.3.4-.5.8-.6.7-.2 1.5-.1 2.2 0 .8.1 1.5.2 2.2.4 2.7.7 5.5 1.5 8.2 2.4v.6c-2.1-.5-4.3-.8-6.5-1-.8-.1-1.6-.1-2.3-.1-.4 0-.9 0-1.3.1-.5-.1-.9-.2-1.4-.3-.4-.1-.8-.1-1.2-.1h-.5c0-.1-.1-.2-.1-.3-.2-.4-.3-.8-.1-1.1zm15.1-4.5c.5-1.5 1.1-2.9 1.9-4.2.4-.7.9-1.3 1.4-1.7.3-.2.6-.3.9-.3.3 0 .6.2.9.4.3.3.6.6.8 1l-.3.6c-.1-.1-.3-.2-.4-.3l-.4-.4c-.1-.1-.2-.1-.3-.1-.1 0-.2.1-.3.1-.1 0-.1.1-.2.1s-.3.1-.4.1c-.3.2-.5.4-.8.6-.5.4-.9 1-1.2 1.6-.7 1.5-1.1 3-1.4 4.6-.3 1.5-.5 3.1-.6 4.6-.3-.1-.5-.2-.8-.3.2-2.1.5-4.3 1.2-6.4zm6.7-5c.3-.2.5-.3.7 0 .2.3.4.6.6 1 .3.7.6 1.4.8 2.2.5 1.5.9 3 1.3 4.5.1.2.1.5.2.7v.2c.1.9.1 1.9.1 2.8-.1 0-.1.1-.2.1-.3-1.3-.7-2.6-1.2-3.8-.4-1.5-.8-3-1.3-4.5-.3-.7-.5-1.5-.9-2.2 0-.4-.2-.6-.3-.8.1-.1.1-.2.2-.2zM27 12.9c-.1.1-.3.1-.4.2 0-.9-.1-1.9-.2-2.8.2.8.4 1.7.6 2.6zm2.6-.8c.4-.2.9-.4 1.3-.6-1.1.7-2.2 1.4-3.3 2 0-.2-.1-.3-.1-.5.7-.2 1.4-.6 2.1-.9zm4.8-2.3c.4-.2.9-.3 1.4-.4h.4c-.5.1-.9.2-1.4.3-.2.1-.5.1-.7.2.1 0 .2-.1.3-.1zm4 0c-.6.2-1.2.5-1.7.7h-.1c.1-.2.1-.3.1-.5v-.3c.3-.1.7-.1 1-.1.3 0 .5.1.7.2zm1.6-.2c.4-.1.9-.2 1.3 0 .2.1.4.2.5.4v.3c-.3-.2-.6-.3-.9-.3-.5.1-1.1.2-1.6.2 0-.1-.1-.2-.2-.3l.9-.3zm-4.5 10.8c-.6.6-1.3 1.2-1.9 1.8-.1-.1-.2-.1-.3-.2.4-.3.7-.6 1.1-.9 1-.9 2-1.8 3-2.8-.6.8-1.2 1.5-1.9 2.1zm4.1 14.8v-.1c0-.1.1-.3.1-.4h.1c.2 0 .4-.1.6-.3.2-.2.2-.4.3-.6 0-.4-.1-.8-.2-1.2-.3-.8-.6-1.4-1.1-2.1-.4-.6-.9-1.3-1.4-1.9-.8-1-1.7-2-2.6-3 .4.4.8.7 1.2 1.1 1.1 1.1 2.1 2.2 3.1 3.4.5.6.9 1.2 1.4 1.9.4.6.8 1.3.9 2.1 0 .4-.1.7-.3 1.1-.2.3-.5.5-.9.6-.4.1-.9.1-1.3 0 0-.1.1-.2.1-.3v-.3zm-21.9-1.3c.1 0 .1-.1.2-.1.1 1 .3 1.9.5 2.9-.2-.7-.4-1.5-.6-2.2-.1-.2-.1-.4-.1-.6zm-1-1.3l.3 1.2c-.1 0-.2.1-.2.1-.1-.4-.1-.8-.2-1.2 0-.1 0-.1.1-.1zm-.2-.2V32h.1c0 .2.1.3.1.5-.1 0-.2 0-.2-.1 0 .1 0 .1 0 0zm-12 2.7c.1-.2.2-.3.3-.5h.3c.8-.1 1.6-.3 2.3-.6.4 0 .9-.1 1.3-.2l1.8-.3c.2 0 .4-.1.7-.1 1.6-.3 3.2-.7 4.7-1.3v.5c-.9.3-1.7.6-2.6.8-1.8.5-3.7.9-5.6 1.2-.9.2-1.9.3-2.8.4-.1.2-.2.2-.4.1 0 .1 0 .1 0 0zm-1.2-1.9c.4.1.9.2 1.3.2 0 0 0 .1-.1.1h-.1c-.5 0-.9-.1-1.3-.3 0 0-.1 0-.1-.1.1.1.2.1.3.1zm.6-1.6l-.3.3.3-.3zM1.7 14.5h-.1.1zm.7-.3c-.2 0-.3 0-.5-.1-.2-.3-.3-.6-.5-1h.2c.4 0 .7.1 1.1.1.1 0 .3.1.4.1-.2.3-.5.6-.7.9zm2.6-.3c1.1.3 2.2.7 3.3 1.1-1.1-.2-2.3-.4-3.4-.5H3.4c-.1 0-.2-.1-.3-.1H3c.1-.2.3-.3.5-.4.2-.1.4-.2.7-.2.3-.1.6 0 .8.1zm9.4 2.6c-.5-.1-.9-.3-1.4-.4-2.3-.9-4.6-1.8-6.9-2.5.6 0 1.2 0 1.8.1 2.2.2 4.3.5 6.5 1V16.5zm1.3-1.5c0 .6-.1 1.3-.1 1.9-.2-.1-.4-.1-.6-.2v-.6-1.3c.3 0 .5.1.7.2zm.1-.9v.3c-.3-.1-.5-.1-.8-.2v-.5c.3.2.5.3.8.4zm0 0c-.3-.1-.5-.2-.8-.3.3 0 .6.1.8.3 0-.1 0-.1 0 0zM20.5 2c.1-.1.2-.1.4 0-.1.1-.3 0-.4 0zm6.1 12.1c0-.1-.1-.3-.1-.4h.1v.4zm0 .1v-.6c.2-.1.3-.2.5-.2 0 .2.1.3.1.5l-.6.3zm.6-.1l-.6.3v-.1c.2-.1.4-.2.6-.4v.2zm12.4-3.3c.1 0 .2-.1.4-.1-.2 0-.3 0-.4.1zm1.5.8c0-.3 0-.7-.3-.9-.3-.2-.6-.1-.8-.1.3-.1.6-.1.9-.1.4 0 .5.1.6.4-.1.3-.3.5-.4.7zm-.2 1s0-.1 0 0l-.1-.1c.1-.2.3-.4.4-.5v-.1c-.1.1-.1.3-.2.4 0 .1 0 .2-.1.3zm-8.4 10.2c.1-.1.3-.2.4-.3.1.1.2.1.3.2l-.4.4-.3-.3zm-.5 1.9c-.1 0-.1-.1-.2-.1.4-.3.7-.7 1.1-1l.3.3c-.4.2-.8.5-1.2.8zm4.7 10.8c-1.5-.4-2.9-.9-4.4-1.4-.6-.2-1.2-.4-1.7-.6h.1c.6.1 1.2.3 1.8.4.5.2 1.1.4 1.6.6 1.2.4 2.4.8 3.6 1h-1zm-7-1.9c.8.3 1.7.6 2.5.9.4.1.8.3 1.3.4-1.3-.3-2.5-.7-3.7-1.1-.1 0-.1-.1-.1-.2zm-1.1-.3c.2.1.3.1.5.2v.2c-.2-.1-.3-.1-.5-.2v-.2zm-10.7-1.2c.2-.1.4-.2.7-.2.1.4.1.7.2 1.1-.2.1-.5.2-.7.3 0-.4-.1-.8-.2-1.2zm-.3 1.1c0-.3-.1-.6-.1-.9.1 0 .1-.1.2-.1.1.4.1.8.2 1.2-.1 0-.2.1-.2.1-.1-.1-.1-.2-.1-.3zm-12.4.9h.5c-.2 0-.4.1-.6.1 0 0 .1 0 .1-.1zm4.6-10.4c.1 0 .1-.1.2-.1.1.1.3.2.4.3.3.2.5.4.8.6-.1.1-.2.1-.3.2h-.1c-.4-.3-.8-.6-1.2-.8l.2-.2zm-7.9-7c.5.4 1.1.9 1.7 1.3 1.8 2 3.8 3.7 5.9 5.3-.1.1-.2.1-.3.2l-1.5-1.2c-1.2-1-2.4-2-3.5-3-.6-.5-1.1-1.1-1.7-1.6-.3-.3-.6-.5-.8-.8-.2-.2-.3-.5-.4-.7.2.2.4.3.6.5zm-.3-1.2c.3.3.6.6.9.8.1.2.2.5.4.7-.2-.2-.5-.4-.7-.6-.3-.2-.6-.5-.8-.8 0-.1.1-.2.1-.3 0 .1 0 .2.1.2zm3.6-.1c.4.2.8.3 1.3.5-1-.4-2-.7-3-1h.2c.5.1 1 .3 1.5.5zM18.5 4.3s0-.1.1-.1c0 0 0 .1-.1.1zm-.4 1c.1-.2.1-.3.2-.5-.3.6-.4 1.2-.6 1.8-.2.8-.3 1.5-.5 2.3-.3 1.7-.4 3.4-.5 5.1-.1-.1-.3-.1-.4-.1v-.1c.1-1.5.3-2.9.6-4.4.3-1.4.7-2.8 1.2-4.1zm.3-.8c-.1.1-.1.2-.2.3.1-.1.2-.2.2-.3zM38.9 11c-.3.1-.7.2-1 .3-.6.2-1.3.5-1.9.7h-.1c.1-.2.2-.3.3-.5.7-.2 1.3-.3 2-.5.2 0 .4-.1.6-.1 0 0 0 .1.1.1zm1.7 1.2c-.1.1-.1 0-.2 0h-.1c-.1-.2-.3-.2-.5-.3 0-.1.1-.1.1-.2 0-.2 0-.4-.1-.6h.2c.2 0 .5-.1.6 0 .1.1.2.3.2.5-.1.1-.1.4-.2.6zm-1.1 2.4c-1.2 1.5-2.5 2.9-3.9 4.2-.4.3-.7.7-1.1 1 .7-.6 1.3-1.3 1.9-2 .7-.6 1.4-1.3 2-1.9.7-.7 1.3-1.4 1.8-2.2 0-.1.1-.1.1-.2v.1c-.2.2-.5.6-.8 1zM30.8 24c.4-.3.9-.6 1.3-.9l.3.3c-.4.3-.7.7-1.1 1-.1-.2-.3-.3-.5-.4zm-.3 1.1c-.1 0-.1-.1-.2-.2s-.3-.2-.4-.3c.2-.1.3-.2.5-.4.2.1.4.3.6.4l-.5.5zm.4.3s0-.1 0 0c.1-.2.3-.3.4-.4l.1.1c-.1 0-.3.1-.5.3zm7.5 6.4c0 .1 0 .1-.1.1-.3-.3-.6-.7-.9-1-1.9-2.1-4.1-3.9-6.4-5.5.2-.1.4-.2.6-.4.9.6 1.8 1.2 2.7 1.9 1.2.9 2.5 1.8 3.4 3 .2.3.5.6.6.9.1.3.2.7.1 1zm-8.7.6v-1.3c.8.2 1.5.5 2.3.7 1.5.4 3 .8 4.6.9h1c.5.5 1.1 1 1.4 1.6v.1h-1.4c-1.5-.1-3-.4-4.5-.7-.4-.1-.7-.1-1.1-.2-.8-.4-1.6-.7-2.3-1.1zm0 .3l1.2.6h-.2c-.4-.1-.7-.2-1.1-.3.1-.2.1-.3.1-.3zm-1.8.3c.1.1.3.1.4.2v.3c-.1-.1-.3-.1-.4-.2V33zm-2.1 5.5c.3-1.5.4-3.1.6-4.7v-.3c.1 0 .2.1.4.1 0 .5 0 1-.1 1.5-.1 1.6-.2 3.1-.5 4.7 0 .3-.1.6-.1.8-.2.6-.5 1.1-1 1.4-.1.1-.2.1-.2.1.4-1.1.7-2.4.9-3.6zM19 31.7s.1 0 .1-.1c0 .4.1.7.1 1.1-.1-.3-.1-.6-.2-1zm-1.1-.3l.6-.3c0 .2.1.4.1.6-.2.1-.4.2-.7.2v-.5zm-.5.2c.1 0 .1-.1.2-.1 0 .2 0 .4.1.6-.1 0-.1.1-.2.1-.1-.2-.1-.4-.1-.6zm-6.1 1.2c.2 0 .4-.1.6-.1 1.3-.3 2.6-.7 3.9-1.2v.1c-.5.2-1.1.4-1.6.5l-3.3.9c.2-.1.3-.2.4-.2zM2.1 15.2l-.1-.1-.1-.1H2c.1.1.1.2.1.2zm9.2 2.7c1.1.5 2.2.9 3.2 1.4v.6c-1.1.7-2.2 1.4-3.2 2.1-2.6-1.7-5.2-3.5-7.6-5.5l-.3-.2c-.2-.3-.5-.6-.7-.9v-.5h.2c2.9.8 5.7 1.8 8.4 3zm3.2 1.3c-1.1-.5-2.1-1-3.2-1.4-.2-.1-.4-.2-.7-.3 1.4.5 2.7 1.1 3.9 1.7zm.8.3h-.2c.1-.1.1 0 .2 0zm.3-1.7v1.4c-.1-.1-.3-.1-.5-.2 0-.5-.1-1-.1-1.4.2.1.4.1.6.2zm.7-2.7c.1 0 .3.1.4.1v2c-.2-.1-.3-.1-.5-.2v-1c.1-.3.1-.6.1-.9zm.5-.6v.1c-.1 0-.3-.1-.4-.1v-.2c.1.1.2.2.4.2zm0 0c-.1-.1-.3-.1-.4-.2v-.1c.1.1.3.1.4.2v.1zm1.6.5v.1c-.2-.1-.4-.1-.6-.2-.3-.1-.5-.2-.8-.4v-.2c.5.3.9.5 1.4.7zm3.1-11.7c0 .1-.1.2-.1.3-.3.7-.5 1.5-.8 2.2-.4 1.3-.7 2.6-1 3.9.1-1.2.3-2.4.5-3.5.2-.8.3-1.5.6-2.2.1-.3.4-.7.6-.7.1-.1.1 0 .2 0zm10.7 9.6l.6-.3c.8-.3 1.7-.6 2.6-.8.2-.1.5-.1.7-.2-.1.2-.2.3-.3.4-1.2.2-2.4.5-3.6.9zm6.2-.7c-.4.1-.9.2-1.3.3-.7.2-1.3.4-2 .6.1-.2.2-.3.3-.5 0 0 0-.1.1-.1s.1-.1.2-.1c.9-.1 1.8-.2 2.7-.2zm.7-.8c0 .1 0 .3-.1.4h-1.7c.2-.1.5-.2.7-.2.4-.1.7-.2 1.1-.3v.1zm-1.5 4.7l1.6-1.6c-.3.4-.7.8-1 1.2l-.7.7c0-.2 0-.3.1-.3zm-2.2 2l.3-.3-.1.1c0 .1-.1.1-.2.2zM33 20.7c-.3.2-.5.5-.8.7-.1 0-.1-.1-.2-.1.7-.5 1.4-1.1 2.1-1.6-.4.3-.8.6-1.1 1zM29.4 26c0-.3-.1-.7-.1-1 .2.1.4.3.6.4h.1c-.2.3-.4.5-.6.6zm.1 1.9c0-.3-.1-.7-.1-1 .9.5 1.7 1 2.6 1.6 1.3.8 2.6 1.7 3.8 2.6.4.3.8.7 1.2 1h-.4c-1.5-.1-3-.5-4.5-.9-.8-.2-1.6-.5-2.5-.7 0-.8 0-1.7-.1-2.6zm-.9 2.3c0-1-.1-1.9-.1-2.9.2-.1.3-.2.5-.4 0 .3.1.7.1 1 0 .8.1 1.6.1 2.4-.2 0-.4-.1-.6-.1zm.1 2.4v-.5c.2.1.3.2.5.2v.4c-.2 0-.4 0-.5-.1zM20.6 31c.3.2.6.3 1 .5-.7.4-1.4.8-2.1 1.1 0-.4-.1-.7-.1-1.1.4-.1.8-.3 1.2-.5zm-1.3-.2c.1-.1.3-.1.4-.2.3.1.5.3.8.4-.4.2-.8.3-1.2.5v-.7zm-.2.1v.7s-.1 0-.1.1c0-.2-.1-.4-.1-.6 0-.2.1-.2.2-.2zm-1.8-.1c.1 0 .2-.1.2-.1v.1c-.1 0-.2.1-.2.1v-.1zm-5.5 1.3c-1 .2-2.1.5-3.1.6 1.8-.4 3.7-.9 5.4-1.6.3-.1.5-.2.7-.3-.6.3-1.1.5-1.7.7-.4.2-.8.3-1.1.4 0 .2-.1.2-.2.2zm-5.6-2.3l.3.3c.3.2.7.3 1.1.4l-2.1 2-.3.3c-.3 0-.5-.1-.8-.2-.1 0-.1-.1-.1-.1.1-.2.2-.5.4-.7.4-.7 1-1.4 1.5-2zm-.1-10.4l-.5-.5-.1-.1 3.3 2.4c-.9-.7-1.8-1.2-2.7-1.8zm8.6 2.3c-.6.5-1.2.9-1.8 1.4-.4-.2-.8-.5-1.1-.7.9-.6 1.9-1.3 2.8-1.9.1.4.1.8.1 1.2zm.8-1.8v1.2l-.2.2c0-.4-.1-.8-.1-1.1.1-.2.2-.2.3-.3zm1.2-1.6v.3c-.2.1-.3.2-.5.3v-.8c.2.1.4.2.5.2zm.3-3.6s0-.1 0 0c.2 0 .4.1.7.2-.2-.1-.4-.1-.5-.2H17zm0 .6c.4.1.9.3 1.3.4-.1.7-.2 1.3-.3 2-.3-.1-.7-.2-1-.4v-2zm1.9-.1c-.1.1-.1.1 0 0-.1 0-.1 0 0 0-.1 0-.1 0 0 0zm7-.5v-.2c-.1 0-.1.1 0 .2zm1.5.2c-.2.1-.4.1-.6.2.2-.1.4-.2.6-.2 0-.1 0-.1 0 0zm.6-.3s-.1 0-.1.1c.7-.3 1.4-.7 2.1-1 .1 0 .2-.1.3-.1-.1 0-.2.1-.3.1-.7.3-1.4.6-2 .9zm1.9.1c-.6.3-1.3.6-1.9.9 0-.2-.1-.3-.1-.5.3-.2.6-.3.8-.5 1.7-.8 3.5-1.5 5.4-1.9-1.4.7-2.8 1.3-4.2 2zm4.4-1.3c-.8.3-1.7.6-2.5.9 1.2-.6 2.3-1.1 3.5-1.6 0 0 .1 0 .1-.1-.1.2-.2.3-.4.5-.2.1-.5.2-.7.3zm-.6 1.5c-1.3 1.7-2.7 3.3-4.1 4.9-.3-.2-.6-.3-.9-.5 0-.3-.1-.5-.1-.8-.1-.8-.2-1.6-.4-2.3.3-.1.6-.3.9-.4 1.8-.7 3.6-1.4 5.4-2h.1c-.4.4-.6.8-.9 1.1zm3.6-.5l-2 2.1c-1.3 1.4-2.7 2.7-4.1 4.1l-.2.2c-.5-.3-1-.6-1.5-.8 1.4-1.6 2.8-3.2 4.1-4.9.3-.4.6-.8.9-1.1.9-.3 1.7-.5 2.6-.7.5-.1 1-.2 1.6-.3-.4.3-.9.8-1.4 1.4zm-4.4 5.4c-.3.2-.5.4-.8.6l3.6-3.6 2-2.1.5-.5c-.3.7-.7 1.3-1.1 1.9-1.4 1.3-2.8 2.6-4.2 3.7zm-1.5 2.1l-.2-.2c.1-.1.2-.1.3-.2.1 0 .1.1.2.1-.1.2-.2.2-.3.3zm-3 3.9v-.2c.1-.1.3-.2.4-.3 0 .3 0 .5.1.8-.2-.1-.3-.2-.5-.3zm-.5 4.1V28v-.2c.1-.1.2-.1.3-.2 0 .8.1 1.6.1 2.5-.2-.1-.3-.1-.4-.2zm-6.7.9l.1.1-.1-.1c-.1 0-.1 0 0 0zm-.9-.5c.3.1.5.3.8.4-.3-.1-.6-.2-.8-.4-.1 0-.1 0 0 0zm-1.9 0v.2l-.6.3v-.1c.2-.2.4-.3.6-.4zm-.7-.4c.1-.1.3-.1.4-.2.1 0 .1.1.2.1l-.6.3v-.2zm-.5.3c.1 0 .2-.1.2-.1v.1c-.1 0-.2.1-.2.1v-.1zM6.3 32.8c.7-.8 1.4-1.5 2.2-2.3h.9c1-.1 1.9-.3 2.9-.4 1.1-.2 2.2-.4 3.4-.7 0 .3 0 .6.1.9-.5.2-1.1.4-1.6.6-1.8.6-3.6 1.2-5.5 1.6-.9.2-1.7.3-2.4.3zm4.8-7.3c-.1.1-.2.1-.2.2l.2-.2zm0-2.7c.4.2.8.5 1.2.7-.2.2-.4.4-.6.5-.4-.3-.8-.6-1.1-.9.1 0 .3-.1.5-.3zm-.5-.2c-.2.1-.3.2-.5.3-.7-.5-1.4-1.1-2-1.7-.2-.2-.5-.4-.7-.6.7.4 1.4.9 2.1 1.3.4.2.7.4 1.1.7zm6.1-2.8c-.2-.1-.3-.2-.5-.2v-.1c.2-.1.3-.2.5-.3v.6zm.8-1.1c.1 0 .2.1.3.1 0 .3-.1.5-.1.8-.2.1-.4.2-.5.4-.1 0-.1-.1-.2-.1V19c.1-.1.3-.2.5-.3zm1.3-2.9v1.5c-.1.1-.3.2-.4.2l.3-1.8.1.1zm.3-.5c.2 0 .5.1.7.2-.2 0-.4-.1-.7-.2zm6.2-.2c-.1.1-.3.2-.4.3-.7.4-1.5.8-2.2 1.2-.3-.1-.6-.3-.8-.4l3.3-1.8c0 .2.1.4.1.7zm1.7 1c0-.1-.1-.3-.1-.4.2-.1.3-.2.5-.3 0 .2.1.3.1.5-.1 0-.3.1-.5.2zm2.2 4.2c-.1-.1-.2-.1-.3-.2.1 0 .2.1.3.2 0-.1 0 0 0 0zm1.3.9c-.4-.3-.9-.6-1.3-.9.5.3 1 .5 1.5.8-.1 0-.2.1-.2.1zm-.9 2c-.1 0-.2-.1-.2-.1.5-.4 1-.7 1.5-1.1h.1l.1.1c-.5.4-1 .8-1.5 1.1zm.4.2c.3-.2.5-.4.8-.5-.2.2-.5.4-.8.5 0 .1 0 .1 0 0zm-.8.6c.1-.1.2-.1.3-.2h.1c-.1.1-.3.2-.4.3V24zm-.9.7v-.2s.1 0 .1-.1c.1 0 .1.1.2.1-.1.1-.2.2-.3.2zm-.4 2.5c0-.4 0-.8-.1-1.3h.1c.1 0 .1.1.2.1 0 .3 0 .6.1 1-.1.1-.2.2-.3.2zm-1.4 5.2c.1 0 .2.1.3.1v.3c-.1 0-.2-.1-.3-.1v-.3zm-1-.4c.3.1.6.2.9.4v.3c-.3-.1-.6-.3-.9-.4V32zm0 0v.2c-.7-.3-1.3-.6-2-.9.6.2 1.3.5 2 .7zm-6.7-1.9c.1 0 .1.1.2.1-.1 0-.1.1-.2.1v-.2zm-8.5-1.2c.8-.8 1.7-1.5 2.6-2.2.9.6 1.8 1.1 2.7 1.7v.7c-1.1.3-2.3.5-3.4.7-.9.2-1.9.4-2.8.4h-.5c.5-.5.9-.9 1.4-1.3zm1.5-3.9c-.1.1-.2.1-.2.2 0-.1.1-.2.2-.2zm4.9-4.8c-.2-.1-.3-.2-.5-.2v-.1c.2.1.4.2.5.3zm1.7-1.1c-.1.1-.2.1-.3.2V19c.2 0 .2.1.3.1zm-.1-.8c.2.1.3.1.5.2v.1c-.2-.1-.3-.2-.5-.3zm1.1-.8c.5-.3 1.1-.6 1.6-.9.3.1.6.2.9.4-.8.4-1.5.9-2.3 1.4-.2-.1-.4-.2-.6-.2v-.3c.2-.3.3-.3.4-.4zm1.1-1.1c-.4.2-.9.5-1.3.7l-.1.1v-1.3c.5.1.9.3 1.4.5zm6.6 2.2c-.1-.6-.2-1.1-.3-1.7.1.5.2 1.1.3 1.7zm1.8 2c-.1 0-.1-.1 0 0l-.1-.1s.1 0 .1.1c0-.1 0 0 0 0zm.6.3l-.6-.3c.3.2.6.4.8.6-.1-.1-.1-.2-.2-.3zm-1.8 3.5s0-.1 0 0c.1-.1.1-.2.2-.2v.1c-.1 0-.1.1-.2.1zm.1.7v-.3c.1 0 .1-.1.2-.1v.3c-.1 0-.2.1-.2.1zm-1.3 6.8v-.8c.1 0 .2.1.2.1v.8s-.1 0-.2-.1zm-7.2-2c0-.1 0-.1 0 0 .2 0 .2 0 .3.1h-.1c-.1-.1-.1-.1-.2-.1zm-2.8-.7s.1 0 0 0c.1.2.1.5.2.7-.1-.2-.1-.5-.2-.7zm-1-1.5l-.6-.3c.3.1.4.2.6.3zm-2.8-2.1c-.1 0-.1.1-.2.1-.3-.2-.5-.3-.8-.5.1-.1.2-.1.2-.2.3.3.6.4.8.6zm-.2-1.2l.6-.3c-.3.2-.5.4-.8.5 0 0-.1 0-.1-.1.2 0 .3-.1.3-.1zm3.8-3.8v-.5c.1.1.3.1.4.2-.2.1-.3.2-.4.3zm2.7-1.9v-.1h.1c0 .1 0 .1-.1.1zm6.4-2.8c-.6.3-1.2.7-1.8 1.1-.1 0-.1-.1-.2-.1.7-.4 1.4-.7 2-1zm.6-.3s0-.1 0 0c0-.1 0-.1 0 0 0-.1 0-.1 0 0zm1.3 4s-.1 0 0 0c-.1-.1-.1-.2-.1-.2s.1 0 .1.1v.1zm.4.3v-.2c.2.1.3.2.5.3v.1c-.1 0-.3-.1-.5-.2zm.7 1.2l-.4.4c-.1-.5-.1-1-.2-1.6.2.1.3.2.5.3 0 .4 0 .6.1.9zm.6 1.4c-.1-.6-.1-1.2-.2-1.8.2.1.4.2.6.4.3.2.5.3.8.5-.4.2-.8.6-1.2.9zm-2.4 7.6c.1 0 .1 0 .2.1v.9c-.1 0-.2-.1-.2-.1v-.9zm-.8.4c-.1 0-.1-.1-.2-.1 0-.2 0-.5.1-.7.3.1.5.2.8.3v.8c-.2-.1-.5-.2-.7-.3zm-.2.2s.1 0 0 0c.3.2.6.3.8.4 0 .3 0 .5-.1.8-.3-.1-.6-.2-.9-.4.2-.3.2-.5.2-.8zm-1.9.1s0-.1 0 0l.9-.6c.3.2.6.3 1 .5 0 .3-.1.6-.1.8-.6-.2-1.2-.5-1.8-.7zm-2.8-.8s.1 0 .1.1c0-.1 0-.1-.1-.1zm-3.3-1.1h.2c.1.1.2.1.3.2.1 0 .1.1.2.1v.1c-.3-.2-.5-.3-.7-.4zm-.3.4v.3c-.1 0-.2.1-.2.1 0-.2 0-.4-.1-.6.1.1.2.1.3.2zm-1-1.2c.1 0 .1.1.2.1v.1c-.1 0-.1 0-.2-.2 0 .1 0 .1 0 0zm-2.8-2c.5.4 1.1.7 1.6 1.1-.6-.3-1.2-.6-1.7-1 0 0 0-.1.1-.1zm.5-1.6c-.1 0-.1 0 0 0l-.7.7c-.2-.1-.4-.3-.6-.4.3-.2.5-.4.8-.6.1.1.3.2.5.3zm12.2-8c-.1 0-.1 0 0 0-.1-.2-.1-.3-.1-.3h.1v.3zm1.3 5.5c-.1-.8-.2-1.6-.3-2.3 0 0 .1 0 .1.1.1.7.2 1.4.3 2.2 0-.1 0 0-.1 0zm.2.1s-.1 0-.1-.1l.1-.1c-.1.1 0 .1 0 .2zm.4.2c0-.2-.1-.5-.1-.7l.4-.4c.1.5.1 1 .2 1.4-.2-.1-.4-.2-.5-.3zm-.8 4v0zm-.6 2.4c.1.2.1.5.1.8h-.1v-.8zm-.1.1v.7c-.2-.1-.4-.1-.6-.2.2-.2.4-.4.6-.5zm-1.2.8c.1 0 .2.1.3.1 0 .2 0 .5-.1.7-.3-.1-.5-.3-.8-.4.2-.1.4-.2.6-.4zm-1.5-.1c.1 0 .2-.1.2-.1.1 0 .2-.1.3-.1.2.1.3.1.5.2-.2.1-.3.2-.5.3-.2-.1-.4-.2-.5-.3zm-.3.1c.2.1.4.2.5.3l-.9.6c-.2-.1-.5-.2-.7-.3.3-.2.7-.4 1.1-.6zm-1-.5c.3.2.6.3.9.5-.4.2-.8.4-1.1.5-.3-.1-.6-.3-.9-.4.3-.2.7-.4 1.1-.6zm-5.4-.5H17h-.1v-.1c.1 0 .2.1.3.1zm-1.7-6.4s-.1.1 0 0c-.1 0-.1 0 0 0-.1-.1 0-.1 0-.1v.1zm1.3-.7c-.1.1-.3.2-.4.2v-.2c.1-.1.3-.2.4-.3v.3zm.7-.8s.1 0 0 0c.1.1.1.1.1.2v.2c-.2.1-.4.2-.5.3v-.3c.1-.2.2-.3.4-.4zm9-2.4s-.1 0-.1-.1c0-.4-.1-.7-.2-1.1h.1c.1.3.1.6.1.9.1.1.1.2.1.3zm1.3 5c-.1 0-.1-.1-.2-.1 0-.2 0-.4-.1-.6.1 0 .1.1.2.1.1.2.1.4.1.6zm-1.1 4.6v-.1.1zm0 .1v0zm-.9.5c.3-.1.5-.3.8-.4v.2c-.3.2-.5.4-.8.6v-.4zm0 0v.3c-.1.1-.2.1-.3.2-.1-.1-.3-.1-.4-.2.2 0 .4-.2.7-.3zm-2-.1c.4-.2.8-.4 1.1-.7l.9-.6c0 .4 0 .8-.1 1.2-.3.1-.6.3-.8.4-.4 0-.7-.1-1.1-.3zm-.6.4c.4.2.7.3 1.1.4-.1 0-.1.1-.2.1s-.2.1-.3.1c-.3-.2-.6-.3-1-.5.1 0 .2-.1.4-.1zm-1.6-.2c.1.1.2.1.3.2l-1.2.6c-.1 0-.2-.1-.3-.1.4-.3.8-.5 1.2-.7zm-1.9.2l1.2-.6c.1 0 .1.1.2.1-.4.2-.8.4-1.2.7-.1-.1-.2-.1-.2-.2zm-4.5-3.7v.3c.1.4.1.7.2 1.1-.5-.3-.9-.6-1.4-.9.3-.2.6-.5.8-.7.2.1.3.2.4.2zm-.2-1c0 .1 0 .1-.1.2h-.1c.1-.2.2-.2.2-.2zm-.1-1c0 .1 0 .3.1.4-.1.1-.3.2-.4.4-.2-.1-.3-.2-.5-.3.2-.1.5-.3.8-.5zm3.1-2.3c.1 0 0 0 0 0zm.7-.4c-.1.1-.2.1-.3.2-.1-.1-.3-.1-.4-.2v-.1c.2-.2.5-.3.7-.5v.6zm1-.7c-.2.1-.4.3-.6.4 0 0-.1 0-.1.1v-.6c.1 0 .1-.1.2-.1.2.1.3.1.5.2zm.8-.6c-.1 0-.1.1-.2.1-.1-.1-.3-.1-.4-.2h.1c.2 0 .3.1.5.1zm2.3-1.8c.1 0 .1.1.2.1-.7.5-1.4.9-2.1 1.4-.1-.1-.2-.1-.4-.2.8-.4 1.5-.9 2.3-1.3zm.2.1c-.1 0-.1-.1-.2-.1.1 0 .2 0 .2.1.1 0 0 0 0 0zm.9.3s-.1 0-.1.1c-.1 0-.1-.1-.2-.1 0 0 .1 0 .1-.1.1 0 .1.1.2.1zm2.8 3.1c-.1-.5-.1-1-.2-1.5 0 0 .1 0 .1.1 0 .2.1.4.1.7v.7zm.1.8v-.3-.8c0 .4.1.7 0 1.1.1 0 .1 0 0 0 .1 0 0 0 0 0zm.2.9c0 .1-.1.1 0 0-.1-.1-.1-.2-.1-.3h.1v.3zm-.4 4.2s0 .1 0 0V28c-.3.1-.5.3-.8.4 0-.4.1-.8.1-1.2.2-.2.5-.3.7-.5zm-4.5 1.6c.1.1.2.1.4.2-.1 0-.2.1-.3.1-.1-.1-.2-.1-.3-.2 0 0 .1 0 .2-.1zm-.8-.3s.1 0 .1.1c-.1 0-.1.1-.2.1l-.1-.1c.1 0 .2-.1.2-.1zm-5.8-5.2v0zm1.3-.9v.1c-.1.1-.3.2-.4.3v-.2c.1-.1.2-.1.3-.2 0 .1.1 0 .1 0zm4.9-3c.6-.4 1.3-.8 1.9-1.2.1 0 .1.1.2.1-.8.3-1.4.7-2.1 1.1zm4-1c-.2-.1-.3-.1-.5-.2.1-.1.3-.1.4-.2.1.1.1.3.1.4zm.8 1.1s.1 0 .1.1v.2s-.1 0-.1-.1V19zm-.5 2.2v-.3-.6c0 .3.1.6.1.9H26zm1 1.7c0-.1 0-.1 0 0-.1-.1-.1-.2-.1-.3l.1-.1v.4zm0 .7c.1 0 .1 0 0 0 .1.1.1.2.1.3H27c.1 0 0-.2 0-.3zm-4.3 4.3c1-.6 1.9-1.2 2.8-1.9.2-.1.3-.1.5-.2v.6c-.9.6-1.9 1.2-2.8 1.7-.3 0-.4-.1-.5-.2zm.2-.7h.1c-.2.1-.5.3-.7.4-.1 0-.1.1-.2.1H22c.3-.2.6-.4.9-.5zM16.7 26c.1.1.2.1.4.2 0 .5.1.9.1 1.4-.1-.1-.2-.1-.3-.2-.1-.5-.2-1-.2-1.4zm.1-3.3c-.1.1-.3.2-.4.3v-.2c.1-.1.3-.2.4-.3v.2zm.3-.9c-.1 0-.1 0 0 0 .1-.1.1-.1.2-.1-.1 0-.2.1-.2.1zm.5.1v.2c-.2.1-.3.3-.5.4v-.2c.1-.1.3-.3.5-.4zm8.2-3.1c-.4-.2-.9-.5-1.3-.7.1 0 .1-.1.2-.1.3.1.5.2.8.4.1.1.2.1.3.2v.2zm.2 3.5c-1.2-.7-2.4-1.3-3.7-2-.2-.1-.5-.2-.7-.4.1-.1.2-.1.3-.2 1.4.6 2.8 1.3 4.1 2v.6zm.3.1c-.1 0-.2-.1-.2-.1v-.5c.1 0 .1.1.2.1-.1.1 0 .3 0 .5zm-7.1 6.1c.4-.1.7-.2 1.1-.3-.3.2-.6.4-1 .5h-.1v-.2zm-1.7-2.1c.1.1.2.1.3.2 0 .5.1.9.2 1.4l-.6-.3c0-.5-.1-.9-.1-1.4.1 0 .2.1.2.1zm-.5-1.1c-.1-.1-.2-.1-.4-.2 0-.5-.1-1-.1-1.5.1-.1.3-.2.4-.3 0 .7 0 1.3.1 2zm.7-.9c0 .4.1.9.1 1.3l-.6-.3c-.1-.8-.1-1.5-.1-2.3.2-.1.3-.3.5-.4 0 .6.1 1.1.1 1.7zm1.1-2.5c0 1.4 0 2.9.1 4.3l-.6-.3c0-.5-.1-1-.1-1.6 0-.6-.1-1.3-.1-1.9.2-.1.4-.3.7-.5zm-.3-.8c.1 0 .2.1.2.1-.2.2-.5.4-.7.6v-.3c.2-.1.3-.2.5-.4zm7.4 3.3c-.6-.3-1.1-.6-1.7-.9-1.5-.8-3-1.6-4.5-2.3.4-.3.8-.6 1.2-.8.3.2.7.3 1 .5 1.3.7 2.7 1.4 4 2.1.1.5 0 1 0 1.4zm.1-.9V23c.1.1.2.1.3.2l-.3.3zm.2 1.1c-.1 0-.1-.1-.2-.1v-1l.3-.3c0 .4.1.8.1 1.1 0 .1-.1.2-.2.3zm-7.1 2.7c.3.2.6.3.9.5l-.9.3c.1-.3 0-.6 0-.8zm-.2-.2v1c-.1 0-.3.1-.4.1-.1-.5-.1-.9-.2-1.4l.6.3zm1.6.5h-.1c-.3-.2-.6-.3-.9-.5.3.2.6.4 1 .5zm-1.8-6.5h-.2.2zm.7.3l3 1.5c-.9-.4-1.7-.9-2.6-1.3-.2 0-.3-.1-.4-.2zm-.4.3c.1 0 .1-.1.2-.1l.1-.1c.1.1.3.1.4.2 1.8.9 3.7 1.8 5.5 2.8l.6.3c-1.2.8-2.4 1.5-3.6 2.2l-.9.3c-.7-.3-1.4-.6-2-.9 0 0-.1 0-.1-.1-.1-1.5-.2-3-.2-4.6zm.8-1.5c.2-.1.3-.2.5-.2.1 0 .1.1.2.1-.4.3-.8.6-1.2.8-.1 0-.1-.1-.2-.1v-.1c.1-.1.2-.2.3-.2.1-.1.2-.2.4-.3zm1.5-.7c-.1.1-.2.1-.2.2H21c.1-.1.1-.2.3-.2zM16.1 24c0 .3.1.6.1.9 0 0-.1 0-.1-.1-.1-.3-.1-.5 0-.8-.1 0-.1 0 0 0zm10.5 1.8c0 .1 0 .1 0 0-.2.2-.4.4-.7.5v-.6l.6-.3c.1.2.1.3.1.4zm-.6-4.9v.2c-1.2-.6-2.4-1.2-3.6-1.7.5-.3 1.1-.7 1.6-1 .2-.1.3-.2.5-.3.5.2.9.5 1.4.7 0 .2.1.4.1.6-.1.6 0 1 0 1.5zm-9.9 5.8v-1.1c.1 0 .1.1.2.1 0 .5.1.9.1 1.4-.1 0-.2-.1-.3-.1v-.3zm9.4-10.2v.3c-.4.2-.7.3-1.1.5-.1 0-.2-.1-.2-.1.5-.2.9-.4 1.3-.7zm2.8 6.7c-.1 0-.1.1-.1.1V23c.1 0 .2.1.3.1-.1 0-.2 0-.2.1zm-14 1.5c-.2.2-.5.5-.8.7.2-.2.4-.4.6-.5l.2-.2zm4.4 4.8v-.1c.1 0 .1.1.2.1h-.2zm10.1-3c-.1.1-.2.2-.3.2v-.5c.1.2.2.2.3.3zm-.2-2.7c-.1 0-.1-.1-.2-.1.1 0 .1-.1.2-.1.1.1.1.1 0 .2.1 0 .1 0 0 0zm-.6-5.2c0 .1 0 .3.1.4-.2-.1-.4-.2-.5-.3-.1-.7-.2-1.4-.4-2.1.2-.1.3-.2.5-.2.1.8.2 1.5.3 2.2zM6.5 29.5l.7-.7c.6-.5 1.2-1 1.7-1.4l2.4-1.8c.3.2.5.4.8.5-.8.8-1.7 1.6-2.5 2.4l-1.7 1.6c-.4 0-.9-.1-1.2-.4-.1 0-.2-.1-.2-.2zm21.8 3c-.1 0-.3-.1-.4-.1v-.6c.1.1.3.1.4.2v.5zm0-.7c-.1-.1-.3-.1-.4-.2v-1c.1 0 .2.1.4.1v1.1zm10-16.9l.3-.6c.2-.3.3-.7.4-1.1.1-.2.3-.3.4-.5h.5c.2 0 .2 0 .3.1-.6.6-1.2 1.4-1.9 2.1zm-18.5-4.4c.4-1.5.7-3 1.2-4.5.2-.7.5-1.5.8-2.2v-.1c.4.5.7 1 1 1.5.3.7.6 1.4.8 2.2.7 2.1 1.1 4.3 1.5 6.5-1.2.7-2.5 1.3-3.7 2-.7-.3-1.5-.7-2.2-1 0-.7.1-1.4.1-2 .2-.9.3-1.6.5-2.4zm9.4 21.7c-.2-.1-.3-.2-.5-.2v-1.2c.2.1.3.1.5.2v1.2zm8.4-.1c-.5-.5-1-.9-1.5-1.3-.6-.5-1.3-1-2-1.5.6.4 1.3.7 1.9 1.1-.7-.4-1.3-.8-2-1.2-.6-.4-1.1-.7-1.7-1.1-.9-.6-1.8-1.1-2.7-1.6.3-.2.6-.5.9-.7 2.4 1.6 4.6 3.5 6.6 5.5l.8.8h-.3zm.5.5c.1.1.2.2.2.3 0-.1-.1-.2-.2-.3zM19.3 3.4c.1-.1.3-.2.4-.3.3-.1.6-.2 1-.2.1 0 .2.1.3.1l-.3.3c-.1.2-.2.4-.3.5-.3.7-.5 1.5-.7 2.3-.3 1.6-.5 3.1-.6 4.7 0 .4 0 .7-.1 1.1l-.6 2.7-1.5-.6c.1-1.7.2-3.4.5-5.1.1-.8.3-1.5.4-2.3.2-.8.4-1.5.8-2.2.3-.4.4-.7.7-1zm5.3 39.3c0 .1-.1.2-.1.2-.3.7-.7 1.4-1.5 1.7-.4.1-.7 0-1-.3-.3-.3-.5-.6-.6-.9-.6-1.4-.9-3-1.2-4.5l-.3-1.8c.1.4.3.7.4 1.1.3.7.6 1.5 1 2.1.4.7.9 1.3 1.6 1.8.2.1.3.2.5.3.1 0 .2.1.3.1l.3.1c.3.1.4.1.6.1zm-.4-.4l-.3-.1c-.1 0-.2-.1-.2-.1-.2-.1-.3-.2-.5-.3-.6-.4-1.1-1-1.5-1.7-.4-.7-.7-1.4-1-2.1-.4-1.1-.8-2.3-1.1-3.5-.1-.5-.1-1-.1-1.5.9-.4 1.8-.9 2.6-1.4.4.2.7.3 1.1.5l2.1.9c-.2 2.2-.5 4.4-.9 6.6.3-2.2.6-4.4.9-6.5l.9.3v.3c-.1 1.6-.3 3.1-.6 4.7-.2 1.3-.5 2.6-1 3.9-.1 0-.2.1-.4 0zm14.3-6.8h-.2c-1.4-.2-2.8-.7-4.1-1.2-.2-.1-.4-.2-.6-.2 1.3.2 2.6.5 3.9.6.5 0 1 .1 1.6 0v.1c-.1.4-.3.6-.6.7zM11.8 16.2c.6.2 1.2.5 1.8.7.3.1.5.2.8.3 0 .5 0 .9.1 1.4-2.3-1-4.7-2-7-2.9-.8-.1-1.5-.4-2.2-.7-.1 0-.3-.1-.4-.1 1.5.1 3 .4 4.5.7l2.4.6zm-7.6 15l.3-.3c-.1.2-.2.3-.3.3zm-.4.7v.2c-.1.1-.1.2-.1.5 0 .1 0 .2.1.3-.1 0-.2 0-.3-.1-.1 0-.2-.1-.3-.1.1-.3.4-.6.6-.8zM18.7 37c-.2-1.1-.4-2.2-.5-3.2.2-.1.5-.2.7-.3.2.9.4 1.8.6 2.6.1 1 .3 2 .4 2.9.3 1.5.6 3.1 1.2 4.6.2.4.4.7.7 1 .2.1.3.3.5.3h.6c.4-.1.7-.4 1-.7.2-.3.4-.7.6-1 0-.1.1-.2.1-.3.2 0 .5-.1.7-.3.2-.2.4-.4.5-.6-.2.9-.4 1.7-.6 2.5-.2.6-.4 1.2-.7 1.7-.4.1-.8.2-1.1.1-.7-.1-1.3-.6-1.9-1.1-.2-.2-.4-.5-.6-.7-.1-.3-.3-.7-.4-1-.3-.9-.6-1.9-.9-2.8-.4-1.2-.6-2.5-.9-3.7zm4.5 10.3l-.6-.3-.4-.2c-.2-.2-.4-.5-.6-.8.5.4 1 .7 1.6.8h.8c-.1.3-.5.5-.8.5zm16.5-13c0-.2-.1-.4-.1-.6-.2-.4-.4-.8-.6-1.1l-.3-.3c.1-.1.2-.2.2-.4.2-1-.4-1.7-.8-2.3-1-1.2-2.2-2.2-3.5-3.1-.8-.6-1.7-1.2-2.6-1.8.4-.3.8-.5 1.2-.8 1.7 1.5 3.2 3.1 4.6 4.9.9 1.2 1.9 2.4 2.4 3.9.2.6.4 1.5-.5 1.6.1 0 0 0 0 0zm-1-24.2c0-.1 0-.1 0 0 .1 0 .1 0 .1.1 0 0 0 .1.1.1-.1 0-.3 0-.4.1H37.9c.3-.1.5-.3.8-.3zm-3.8 0c.5-.1.9-.2 1.4-.3.1 0 .2 0 .3-.1v.3c0 .2-.1.3-.1.5-.4.1-.9.2-1.3.3-1.8.6-3.6 1.3-5.4 2.1-.7.3-1.4.6-2.1 1 0-.1 0-.2-.1-.3 1.2-.8 2.5-1.6 3.7-2.3 1.2-.4 2.4-.9 3.6-1.2zM22.6 2.8c.3.5.5 1.1.7 1.7-.1-.2-.3-.4-.4-.6-.2-.3-.4-.6-.7-.9.1-.2.2-.3.3-.5-.1.1 0 .2.1.3zM1 14.8c0 .1.1.1.1.2l-.1.1v-.3zm18.3 27.1c0 .1.1.2.1.4 0 0 0-.1-.1-.1v-.3zm7.6 1.8c-.3.5-.6 1-1 1.5.4-1 .7-2 .9-3 .3-1.5.6-3.1.7-4.7.1-1.1.2-2.3.2-3.4.1.1.3.1.4.2-.1 2.9-.4 5.9-1.1 8.7.1.2 0 .4-.1.7zm7.2-20.5c-.2.1-.4.3-.6.4-.1-.1-.2-.2-.4-.3l.5-.5c.2.2.4.3.5.4zm8.8 9.5c-.4-1.5-1.1-2.9-2-4.2-1.7-2.3-4-4-6.3-5.6 2.9-2.1 5.7-4.3 8.3-6.7-2.7 2.4-5.5 4.6-8.4 6.7-.2-.1-.4-.3-.6-.4l1.8-1.8c1.4-1.4 2.7-2.8 3.8-4.4.3-.4.5-.8.8-1.2.2-.4.5-.8.6-1.4 0-.1 0-.2.1-.4.2-.3.4-.5.5-.8.1-.2.2-.4.3-.7.1-.2.2-.5.2-.8 0-.2-.1-.3-.1-.5.1-.2.2-.5 0-.8-.1-.2-.4-.4-.6-.5-.5-.2-1-.1-1.5 0-.4.1-.7.2-1 .3-.3-.3-.8-.4-1.2-.4-.5 0-.9.1-1.4.2-.2-.1-.4 0-.6 0-.5.1-.9.2-1.4.4-.3.1-.5.2-.7.3-1.4.5-2.9 1-4.2 1.7-.7.3-1.3.6-2 1-.2-1.1-.5-2.2-.7-3.3-.2-.7-.3-1.4-.5-2.1-.1-.6-.1-1.1-.3-1.7.1.5.2 1.1.2 1.6-.2-.8-.5-1.6-.7-2.4-.3-.7-.5-1.5-.9-2.2-.2-.4-.4-.7-.6-1.1-.1-.1-.2-.2-.3-.2-.1-.1-.3-.1-.4-.1-.3 0-.5.2-.7.3l-.1.1c-.2-.3-.5-.7-.8-1-.3-.3-.7-.5-1.2-.5s-.9.2-1.3.4c-.5.5-1 1.1-1.4 1.8-.9 1.3-1.5 2.8-2 4.3-.6 2.1-1 4.3-1.1 6.5-2.7-.9-5.4-1.7-8.1-2.4-.8-.2-1.5-.3-2.3-.4-.4 0-.8-.1-1.2-.1-.4 0-.8 0-1.2.1-.4.1-.8.3-1 .8-.2.4-.1.9 0 1.3 0 .1.1.2.1.3-.1 0-.1.1-.2.1-.1.2-.1.3-.2.4-.1.5.1.9.3 1.2v.1c-.1 0-.3.1-.4.1-.1.1-.3.3-.3.6 0 .2.1.4.2.6.2.3.4.7.7 1C1.9 17.9 3 19 4.2 20c.6.5 1.3 1 1.9 1.5.5.4.9.8 1.4 1.1.5.4 1 .7 1.4 1.1-1.4 1-2.7 1.9-4 3-.7.6-1.5 1.3-2.1 2-.3.3-.7.7-1 1.1-.3.4-.6.8-.7 1.4 0 .6.3 1.1.8 1.4.2.1.3.2.5.3v.2c-.3.3-.6.6-.8 1-.1.2-.2.5-.1.8.1.3.4.4.6.5.5.1 1 0 1.5 0H4v.3c0 .2.1.3.2.5.1.1.2.2.4.3.5.2 1 .3 1.5.3s1 0 1.5-.1c.5 0 1-.1 1.4-.2 1-.1 1.9-.3 2.8-.6 1.6-.4 3.1-.9 4.6-1.4.5 2.4 1.2 4.8 2.2 7.1.2.3.3.7.5 1 .2.7.5 1.4.7 2.1.3.7.6 1.5 1.1 2.1.2.3.6.6.9.9.4.2.9.3 1.3.2h.1c.2 0 .4-.1.6-.1.6 0 1.1-.1 1.5-.5.6-.5 1-1.3 1.3-2 .1-.2.2-.4.3-.7.5-.8.9-1.7 1.3-2.6.6-1.5.9-3.1 1.1-4.6.1-.9.2-1.8.2-2.7.8.2 1.5.5 2.3.7 1.5.4 3 .9 4.5 1.1.4 0 .8.1 1.2.1.4 0 .7 0 1.1-.1h.1c.8.1 1.6.3 2.4.2.4-.1.8-.2 1.2-.4.4-.3.6-.6.7-1.1.3-.9.1-1.7-.1-2.5zM149.7 27.3c.4-.5.5-1.3.5-2.4 0-1.1-.2-1.9-.5-2.4-.4-.5-.9-.8-1.8-.8-.8 0-1.4.3-1.8.8-.3.5-.5 1.3-.5 2.4 0 .7.1 1.3.2 1.8s.4.8.7 1c.3.2.8.3 1.3.3 1 0 1.6-.2 1.9-.7zm2-8.2c1 .5 1.7 1.1 2.1 2.1.5.9.7 2.2.7 3.7s-.2 2.7-.7 3.7c-.5.9-1.2 1.6-2.1 2.1-1 .5-2.2.7-3.8.7s-2.8-.2-3.8-.7c-1-.5-1.7-1.2-2.1-2.1-.5-.9-.7-2.2-.7-3.7s.2-2.7.7-3.7c.5-.9 1.2-1.6 2.1-2.1 1-.5 2.2-.7 3.8-.7s2.9.3 3.8.7zM156.1 18.8s.1-.1.2-.1h3.7c.1 0 .1 0 .2.1 0 0 .1.1.1.2v1c0 .1 0 .1.1.1 0 0 .1 0 .2-.1.8-1 2-1.6 3.6-1.6 1.2 0 2.1.2 2.7.5.6.4 1 .9 1.3 1.6.2.7.3 1.6.3 2.7v7.6c0 .1 0 .1-.1.2 0 0-.1.1-.2.1h-3.7c-.1 0-.1 0-.2-.1 0 0-.1-.1-.1-.2v-6.7c0-.6 0-1-.1-1.4-.1-.3-.3-.6-.5-.7-.2-.2-.6-.2-1.1-.2-.5 0-1 .1-1.3.4-.4.2-.6.6-.7 1.2-.1.4-.2 1-.2 1.7V31c0 .1 0 .1-.1.2 0 0-.1.1-.2.1h-3.7c-.1 0-.1 0-.2-.1 0 0-.1-.1-.1-.2V19c.1-.1.1-.2.1-.2M171.7 31.1c-.1 0-.1 0-.2-.1 0 0-.1-.1-.1-.2v-8.5c0-.1 0-.1-.1-.1h-1.5c-.1 0-.1 0-.2-.1 0 0-.1-.1-.1-.2v-3c0-.1 0-.1.1-.2 0 0 .1-.1.2-.1h1.5c.1 0 .1 0 .1-.1v-.8c0-1.5.4-2.6 1.3-3.3.9-.7 2.2-1.1 3.9-1.1h1c.4 0 .6.1.8.1.1 0 .1 0 .1.1v3c0 .1 0 .1-.1.2 0 0-.1.1-.2.1h-1c-.7 0-1.1.1-1.4.3-.3.2-.4.6-.4 1.1v.3c0 .1 0 .1.1.1h1.9c.1 0 .1 0 .2.1 0 0 .1.1.1.2v3c0 .1 0 .1-.1.2 0 0-.1.1-.2.1h-1.9c-.1 0-.1 0-.1.1v8.5c0 .1 0 .1-.1.2 0 0-.1.1-.2.1h-3.4M140.3 27.2c-.3.1-.7.1-1.1.2-.5.1-.9.1-1.3.1-1 0-1.8-.1-2.4-.4-.6-.3-1-.7-1.3-1.4-.3-.6-.4-1.5-.4-2.5 0-1.1.1-1.9.4-2.6.3-.7.7-1.1 1.3-1.4.6-.3 1.4-.5 2.5-.5.4 0 .8 0 1.2.1.4 0 .8.1 1 .2.1 0 .2 0 .2-.1l.5-3.3c0-.1 0-.2-.2-.2-.4-.1-.9-.2-1.5-.3-.6-.1-1.2-.1-1.7-.1-2.7 0-4.6.6-6 1.9v12.8c.4.4.9.7 1.4 1 1.2.6 2.7.9 4.6.9.6 0 1.2 0 1.8-.1.6-.1 1.1-.1 1.4-.3.1-.1.2-.1.2-.3l-.4-3.3c0-.3-.1-.4-.2-.4M51.5 23.4c.9 0 1.7-.1 2.2-.4.5-.2.9-.6 1.2-1.2.2-.5.4-1.2.4-2.1 0-.8-.1-1.5-.4-2-.3-.5-.7-.9-1.3-1.1-.6-.2-1.3-.3-2.3-.3h-2.6c-.1 0-.1 0-.1.1v6.8c0 .1 0 .1.1.1h2.8zM47.4 31s-.1-.1-.1-.2V15.5c0-.1 0-.1.1-.2 0 0 .1-.1.2-.1h3.9c1.6 0 2.9.3 3.7 1s1.3 1.8 1.3 3.4c0 1.3-.2 2.2-.6 2.9-.4.7-1.1 1.2-2 1.5-.1 0-.1 0-.1.1v.1c.5.8 1.2 1.9 1.9 3.1.8 1.2 1.5 2.4 2.2 3.5v.2l-.1.1h-1.2l-.1-.1c-.7-1.1-1.4-2.3-2.3-3.7-.8-1.4-1.4-2.2-1.7-2.6 0-.1-.1-.1-.1-.1h-3.7c-.1 0-.1 0-.1.1v6.2c0 .1 0 .1-.1.2 0 0-.1.1-.2.1h-.8c0-.1 0-.1-.1-.2zM60.5 24.1H68.4V24c0-1-.1-1.8-.4-2.4-.2-.6-.6-1.1-1.2-1.5-.6-.3-1.3-.5-2.3-.5-1.4 0-2.5.4-3.1 1.3-.6.8-1 1.9-1.1 3.2h.2zm6.6 7.1c-.6.1-1.3.2-2.1.2-2 0-3.5-.5-4.5-1.6-1-1-1.4-2.7-1.4-4.9 0-2 .5-3.6 1.4-4.7.9-1.1 2.3-1.7 4.1-1.7 1.9 0 3.1.5 3.9 1.5.7 1 1.1 2.4 1.1 4.1v.9c0 .1-.1.2-.2.2h-8.9c-.1 0-.1.1-.1.2 0 1.7.4 2.9 1.2 3.7.8.8 2 1.2 3.6 1.2.6 0 1.1-.1 1.7-.2.6-.1 1.1-.2 1.5-.4h.2l.1.1.2.7v.2l-.1.1c-.5.1-1.1.3-1.7.4zM78.8 29.6c.6-.5.9-1.3.9-2.3 0-.6-.1-1.1-.3-1.4-.2-.3-.5-.5-1-.6-.5-.1-1.2-.2-2.1-.2-.9 0-1.6.1-2.1.2s-.9.4-1.1.8c-.2.4-.4 1-.4 1.7s.1 1.2.4 1.6c.2.4.6.6 1.1.8.5.1 1.2.2 2 .2 1.2-.1 2-.4 2.6-.8zm2.1.2c0 .2.1.3.3.4.1.1.3.1.6.1h.8c.2 0 .2.1.2.2v.4c0 .1-.1.2-.2.3-.3.1-.7.1-1.1.1-.5 0-.9-.1-1.2-.3-.3-.2-.4-.6-.4-1.1v-.1h-.1c-.7 1.1-1.9 1.6-3.6 1.6-1 0-1.9-.1-2.5-.3-.7-.2-1.2-.6-1.6-1.1-.4-.5-.6-1.3-.6-2.2 0-1 .2-1.7.6-2.3.4-.5.9-.9 1.6-1.1.7-.2 1.5-.3 2.5-.3.8 0 1.5 0 2 .1s1 .2 1.4.5h.1V23c0-.9-.1-1.5-.3-2-.2-.5-.6-.8-1.1-1-.5-.2-1.3-.3-2.3-.3h-1.1c-.4 0-.8.1-1.1.1h-.1l-.1-.1v-.6c0-.1.1-.2.2-.2.9-.1 1.6-.2 2.3-.2 1.2 0 2.2.1 2.9.4.7.3 1.2.7 1.6 1.3s.5 1.4.5 2.4v6.5c-.2.1-.2.3-.2.5zM90 31.4c-2 0-3.5-.5-4.5-1.5S84 27.3 84 25c0-2.2.5-3.8 1.5-4.9 1-1.1 2.5-1.6 4.5-1.6.4 0 .8 0 1.2.1s.7.1 1 .2c.1 0 .2.1.2.2l-.1.7s0 .1-.1.1H92c-.6-.2-1.2-.3-2-.3-1.7 0-2.9.4-3.6 1.3-.8.9-1.1 2.2-1.1 4.1 0 1.2.2 2.2.5 3 .3.8.8 1.4 1.5 1.8.7.4 1.6.6 2.8.6.7 0 1.4-.1 2.1-.3h.1c.1 0 .1 0 .2.1l.1.7v.2l-.1.1c-.8.2-1.6.3-2.5.3M96.8 29.4c.1.3.2.5.5.6.2.1.5.2.9.2h1.2c.1 0 .2.1.2.2v.5s0 .1-.1.1-.1.1-.1.1c-.2 0-.5.1-.7.1H98c-.6 0-1.1-.1-1.5-.3-.4-.2-.6-.5-.8-.9-.2-.4-.2-1-.2-1.8V20v-.1h-2c-.1 0-.1 0-.2-.1 0 0-.1-.1-.1-.2V19c0-.1 0-.1.1-.2 0 0 .1-.1.2-.1h1.9c.1 0 .1 0 .1-.1v-2.8c0-.1 0-.1.1-.2 0 0 .1-.1.2-.1h.8c.1 0 .1 0 .2.1 0 0 .1.1.1.2v2.8c0 .1 0 .1.1.1h2.6c.1 0 .1 0 .2.1s.1.1.1.2v.6c0 .1 0 .1-.1.2 0 0-.1.1-.2.1H97h-.1V28.2c-.2.5-.2.9-.1 1.2M103.7 13.9c.2.2.3.5.3.8 0 .3-.1.6-.3.8-.2.2-.5.3-.8.3-.3 0-.6-.1-.8-.3-.2-.2-.3-.5-.3-.8 0-.3.1-.6.3-.8.2-.2.5-.3.8-.3.3 0 .6.1.8.3zm-.2 4.9s.1.1.1.2v11.9c0 .1 0 .1-.1.2 0 0-.1.1-.2.1h-.8c-.1 0-.1 0-.2-.1 0 0-.1-.1-.1-.2V20v-.1h-1.6c-.1 0-.1 0-.2-.1 0 0-.1-.1-.1-.2V19c0-.1 0-.1.1-.2 0 0 .1-.1.2-.1h2.6c.2.1.3.1.3.1zM110.1 30.9c-.7-1.7-1.6-3.8-2.5-6.1-.9-2.3-1.6-4.2-2.1-5.6v-.3-.1l.1-.1h.9c.1 0 .2.1.3.2.6 1.7 1.3 3.6 2.1 5.8.8 2.2 1.5 3.8 1.9 4.9 0 .1.1.1.2.1h.1s.1 0 .1-.1c.5-1.1 1.1-2.7 1.9-4.9.8-2.2 1.5-4.1 2.1-5.8 0-.1 0-.2.1-.2h1.2l.1.1v.2c-.5 1.4-1.2 3.3-2.1 5.7-.9 2.4-1.7 4.4-2.4 6 0 .1-.1.1-.2.2-.1 0-.1.1-.2.1h-1.1c-.3.1-.4 0-.5-.1M119 24.1H126.9V24c0-1-.1-1.8-.4-2.4-.2-.6-.6-1.1-1.2-1.5-.6-.3-1.3-.5-2.3-.5-1.4 0-2.5.4-3.1 1.3-.6.8-1 1.9-1.1 3.2h.2zm6.7 7.1c-.6.1-1.3.2-2.1.2-2 0-3.5-.5-4.5-1.6-1-1-1.4-2.7-1.4-4.9 0-2 .5-3.6 1.4-4.7.9-1.1 2.3-1.7 4.1-1.7 1.9 0 3.1.5 3.9 1.5.7 1 1.1 2.4 1.1 4.1v.9c0 .1-.1.2-.2.2h-9c-.1 0-.1.1-.1.2 0 1.7.4 2.9 1.2 3.7.8.8 2 1.2 3.6 1.2.6 0 1.1-.1 1.7-.2.6-.1 1.1-.2 1.5-.4h.2l.1.1.2.7v.2l-.1.1c-.5.1-1 .3-1.6.4z"/><path fill-rule="evenodd" clip-rule="evenodd" fill="#FFF" d="M131.1 35s-.1-.1-.1-.2V12c0-.1 0-.1.1-.2 0 0 .1-.1.2-.1h.5c.1 0 .1 0 .2.1 0 0 .1.1.1.2v22.9c0 .1 0 .1-.1.2 0 0-.1.1-.2.1h-.5l-.2-.2"/></svg>