<svg xmlns="http://www.w3.org/2000/svg" viewBox="0 0 181 48"><path fill-rule="evenodd" clip-rule="evenodd" fill="#FFF" d="M180.1 20.8c-.1-.4-.4-.8-.7-1.1-.3-.3-.7-.6-1.2-.8-.5-.3-1.1-.5-1.8-.8-.4-.1-.8-.3-1.1-.4-.3-.1-.5-.3-.7-.4-.2-.1-.3-.3-.4-.4-.1-.2-.1-.3-.1-.6 0-.4.2-.7.6-.9.4-.2.9-.3 1.5-.3.7 0 1.2.1 1.7.2s.9.3 1.2.4l.5-2.4c-.3-.1-.8-.3-1.5-.4-.7-.1-1.4-.2-2.1-.2-1.5 0-2.6.3-3.5 1-.9.7-1.3 1.6-1.3 2.7 0 .6.1 1.1.3 1.5.2.4.4.8.8 1.1.3.3.7.5 1.2.8.4.2.9.4 1.5.6.9.3 1.5.6 1.9.9.4.3.6.6.6 1 0 .5-.2.8-.5 1-.4.2-.9.3-1.7.3-.8 0-1.5-.1-2.1-.2-.6-.2-1.1-.3-1.5-.5l-.5 2.4c.3.1.7.3 1.4.4.7.2 1.6.3 2.7.3 1.7 0 2.9-.3 3.8-.9.9-.6 1.3-1.5 1.3-2.7-.1-.7-.1-1.2-.3-1.6zm-10.2-7.6c-.1-.1-.3-.1-.6-.2-.2-.1-.5-.1-.7-.1-.3 0-.5-.1-.8-.1h-.7c-1 0-1.9.1-2.8.3-.8.2-1.5.4-2.1.6v12.1h2.9V15.5c.1-.1.4-.1.8-.2s.7-.1 1-.1c.6 0 1 0 1.5.1.4.1.7.2 1 .2l.5-2.3zM151.5 18c.1-.4.1-.7.3-1.1.1-.4.3-.7.5-.9.2-.3.5-.5.9-.7.3-.2.7-.3 1.2-.3.4 0 .8.1 1.1.2.3.2.6.4.8.6.2.3.4.6.5.9.1.4.2.7.2 1.1h-5.5zm6.9-3.7c-1-1.1-2.3-1.6-4.1-1.6-.7 0-1.5.1-2.2.4-.7.3-1.3.7-1.9 1.3-.6.6-1 1.3-1.3 2.1-.3.8-.5 1.8-.5 2.9 0 1 .1 1.8.4 2.6.3.8.7 1.5 1.2 2.1.5.6 1.2 1 2 1.4.8.3 1.8.5 2.9.5.4 0 .9 0 1.3-.1.4 0 .8-.1 1.2-.2.4-.1.7-.2 1-.2.3-.1.5-.2.7-.3l-.5-2.3c-.3.1-.7.2-1.2.4-.6.1-1.2.2-1.9.2-1.2 0-2.1-.3-2.8-.8-.6-.6-1-1.3-1.1-2.4h8.4v-.5-.5c-.1-2.3-.6-3.9-1.6-5zm-27.5 9.2c-.5.1-1.2.1-2.1.1-.7 0-1.3-.1-1.8-.4-.4-.3-.7-.7-.7-1.4 0-.4.1-.7.2-.9.2-.2.4-.4.6-.5l.9-.3c.3 0 .7-.1 1-.1.4 0 .7 0 1 .1.3 0 .5.1.7.1v3.3zm2.6-7.9c-.2-.6-.5-1.2-.9-1.6-.4-.4-.9-.8-1.6-1-.7-.2-1.5-.4-2.5-.4-.8 0-1.6.1-2.3.2-.7.1-1.3.3-1.6.4l.5 2.4c.3-.1.7-.2 1.2-.3.6-.1 1.2-.1 1.9-.1.5 0 .9.1 1.3.2.3.1.6.3.8.6.2.2.3.5.4.8.1.3.1.6.1 1v.5c-.4-.1-.8-.2-1.2-.2-.4 0-.7-.1-1-.1-.7 0-1.4.1-2 .2-.6.1-1.2.4-1.7.7-.5.3-.9.7-1.2 1.2-.3.5-.4 1.1-.4 1.9 0 .8.1 1.4.4 1.9.3.5.6 1 1.1 1.3.5.3 1 .6 1.6.7.6.1 1.3.2 2.1.2 1.2 0 2.2-.1 3.1-.2.9-.1 1.6-.3 2.1-.4v-7.8c.1-.8 0-1.5-.2-2.1zm-35.6 7.9c-.5.1-1.2.1-2.1.1-.7 0-1.3-.1-1.8-.4-.4-.3-.7-.7-.7-1.4 0-.4.1-.7.2-.9.2-.2.4-.4.6-.5l.9-.3c.3 0 .7-.1 1-.1.4 0 .7 0 1 .1.3 0 .5.1.7.1v3.3zm2.6-7.9c-.2-.6-.5-1.2-.9-1.6-.4-.4-.9-.8-1.6-1-.7-.2-1.5-.4-2.5-.4-.8 0-1.6.1-2.3.2-.7.1-1.3.3-1.6.4l.5 2.4c.3-.1.7-.2 1.2-.3.6-.1 1.2-.1 1.9-.1.5 0 .9.1 1.3.2.3.1.6.3.8.6.2.2.4.5.4.8.1.3.1.6.1 1v.5c-.4-.1-.8-.2-1.2-.2-.4 0-.7-.1-1-.1-.7 0-1.4.1-2 .2-.6.1-1.2.4-1.7.7-.5.3-.9.7-1.2 1.2-.3.5-.4 1.1-.4 1.9 0 .8.1 1.4.4 1.9.3.5.6 1 1.1 1.3.5.3 1 .6 1.6.7.6.1 1.3.2 2.1.2 1.2 0 2.2-.1 3.1-.2.9-.1 1.6-.3 2.1-.4v-7.8c.1-.8 0-1.5-.2-2.1zM81.9 23c-.3.1-.7.2-1.1.3-.5.1-1 .1-1.5.1-1.3 0-2.3-.4-2.9-1.1-.6-.7-.8-1.7-.8-3s.3-2.3.9-3c.6-.7 1.5-1.1 2.6-1.1.5 0 .9 0 1.4.1.4.1.8.2 1.2.4l.5-2.4c-1-.4-2.1-.6-3.3-.6-1 0-1.8.2-2.6.5s-1.4.8-2 1.4c-.5.6-1 1.3-1.2 2.1-.3.8-.4 1.7-.4 2.6 0 1 .1 1.8.4 2.7.3.8.6 1.5 1.2 2.1.5.6 1.2 1 2 1.4.8.3 1.7.5 2.8.5.7 0 1.4-.1 2-.2.6-.1 1.1-.3 1.5-.4l-.7-2.4zm-25.3-2.2c-.1-.4-.4-.8-.7-1.1-.3-.3-.7-.6-1.2-.8-.5-.3-1.1-.5-1.8-.8-.4-.1-.8-.3-1.1-.4-.3-.1-.5-.3-.7-.4-.2-.1-.3-.3-.4-.4-.1-.2-.1-.3-.1-.6 0-.4.2-.7.6-.9.4-.2.9-.3 1.5-.3.7 0 1.2.1 1.7.2s.9.3 1.2.4l.5-2.4c-.3-.1-.8-.3-1.5-.4-.7-.1-1.4-.2-2.1-.2-1.5 0-2.6.3-3.5 1-.9.7-1.3 1.6-1.3 2.7 0 .6.1 1.1.3 1.5.2.4.4.8.8 1.1.3.3.7.5 1.2.8.4.2.9.4 1.5.6.9.3 1.5.6 1.9.9.4.3.6.6.6 1 0 .5-.2.8-.5 1-.4.2-.9.3-1.7.3-.8 0-1.5-.1-2.1-.2-.6-.2-1.1-.3-1.5-.5l-.5 2.4c.3.1.8.3 1.4.4.7.2 1.6.3 2.7.3 1.7 0 2.9-.3 3.8-.9.9-.6 1.3-1.5 1.3-2.7-.1-.7-.2-1.2-.3-1.6zM88 25.6v-13l-2.9.5v12.5H88zm18.8 0V7.1l-2.9.5v18h2.9zm32.8-7.7l1.2-1.2c.4-.4.8-.9 1.2-1.3.4-.4.8-.9 1.1-1.3.4-.4.7-.8.9-1.1h3.4c-.8.9-1.6 1.8-2.5 2.8-.9 1-1.8 1.9-2.7 2.8.5.4 1 .9 1.5 1.5l1.5 1.8c.5.6 1 1.3 1.4 1.9.4.6.8 1.2 1.1 1.8h-3.3c-.3-.5-.6-1-1-1.6-.4-.5-.8-1.1-1.2-1.6-.4-.5-.9-1-1.3-1.5s-.9-.8-1.3-1.2v5.8h-2.9V7.7l2.9-.5v10.7zm-20.7 1.4c0-1.2-.2-2.2-.7-3-.5-.7-1.3-1.1-2.3-1.1-.5 0-.9.1-1.4.2-.4.1-.8.3-1 .5v7.3c.2 0 .5.1.8.1.3 0 .7.1 1.2.1 1.1 0 1.9-.4 2.5-1.1.6-.7.9-1.7.9-3zm2.7 0c0 1-.1 1.9-.4 2.7-.3.8-.7 1.5-1.3 2.1-.5.6-1.2 1-2 1.3-.8.3-1.7.5-2.6.5-1 0-1.9-.1-2.7-.2-.9-.1-1.6-.3-2.2-.5V7.8l2.9-.5v6.2c.3-.2.7-.3 1.2-.5.5-.1 1-.2 1.6-.2.9 0 1.7.2 2.3.5.7.3 1.3.8 1.7 1.3.5.6.8 1.3 1.1 2.1.3.7.4 1.6.4 2.6zm-33.3-10c0 .6-.2 1-.5 1.3-.4.3-.8.5-1.3.5s-.9-.2-1.3-.5-.5-.8-.5-1.3c0-.6.2-1 .5-1.3.4-.3.8-.5 1.3-.5s.9.2 1.3.5c.3.3.5.7.5 1.3zm-20.7 10c0-1.3-.3-2.3-.8-3-.5-.7-1.3-1.1-2.3-1.1-1 0-1.7.4-2.3 1.1-.5.7-.8 1.7-.8 3s.3 2.3.8 3c.5.7 1.3 1.1 2.3 1.1 1 0 1.7-.4 2.3-1.1.5-.7.8-1.7.8-3zm3 0c0 1-.1 1.9-.4 2.7-.3.8-.7 1.5-1.2 2.1-.5.6-1.2 1-1.9 1.4-.8.3-1.6.5-2.5.5-.9 0-1.7-.2-2.5-.5-.7-.3-1.4-.8-1.9-1.4-.5-.6-.9-1.3-1.2-2.1-.3-.8-.4-1.7-.4-2.7 0-1 .1-1.9.4-2.7.3-.8.7-1.5 1.3-2.1.5-.6 1.2-1 1.9-1.3.7-.3 1.6-.5 2.4-.5.9 0 1.7.2 2.5.5s1.4.8 1.9 1.3c.5.6.9 1.3 1.3 2.1.2.8.3 1.7.3 2.7zM10.9 10.8c.6 0 1.1 0 1.7.1.4.1.8.1 1.1.1 1.3-.1 2.4-.7 3.1-1.7 1.1-1.5 2.8-2.5 4.7-2.6 3.3-.3 6.2 1.9 7 5 2.6.3 4.7 2.3 4.9 5 .2 2.6-1.5 5-3.9 5.7l.7 8-1.7-.6c-2.5-.9-5.1-1.3-7.8-1.1-2.7.2-5.2 1-7.5 2.4l-1.6.9-.7-8c-3.1-.3-5.7-2.8-6-6-.3-3.7 2.3-6.9 6-7.2zM0 38.4h19.1l9.6 9.6v-9.6h9.6V.2H0v38.2z"/><path fill-rule="evenodd" clip-rule="evenodd" fill="#FFF" d="M11.8 21.6c.4 0 .7-.1 1.1-.2l.6 6.9c2.2-1 4.5-1.7 6.9-1.9 2.4-.2 4.8 0 7.1.6l-.5-6.9c.4.1.8.1 1.1.1 1.8-.2 3.1-1.7 2.9-3.5-.1-1.4-1.2-2.6-2.5-2.9-.2 2-1.4 3.8-3 4.8L23.9 17c1.6-.8 2.6-2.5 2.5-4.3-.2-2.4-2.3-4.1-4.7-3.9-1.2.1-2.3.7-3.1 1.7-1.1 1.5-2.8 2.5-4.7 2.6-.5 0-1.1 0-1.7-.1-.4-.1-.7-.1-1.1 0-2.4.2-4.1 2.3-3.9 4.7.1 2.4 2.2 4.1 4.6 3.9"/></svg>