<svg width="253" height="294" xmlns="http://www.w3.org/2000/svg"><g transform="translate(.952)" fill="none" fill-rule="evenodd"><path d="M3.147 246.024c-1.738 0-3.147-1.375-3.147-3.072 0-1.696 1.409-3.071 3.147-3.071 1.738 0 3.147 1.375 3.147 3.071 0 1.697-1.41 3.072-3.147 3.072zm0 47.976C1.409 294 0 292.625 0 290.928c0-1.696 1.409-3.071 3.147-3.071 1.738 0 3.147 1.375 3.147 3.071 0 1.697-1.41 3.072-3.147 3.072zm50.949-42.125c-3.393 0-6.144-2.685-6.144-5.997s2.75-5.997 6.144-5.997c3.393 0 6.144 2.685 6.144 5.997s-2.75 5.997-6.144 5.997zM51.099 294c-1.738 0-3.147-1.375-3.147-3.072 0-1.696 1.409-3.071 3.147-3.071 1.738 0 3.147 1.375 3.147 3.071 0 1.697-1.41 3.072-3.147 3.072zm47.952-47.976c-1.738 0-3.147-1.375-3.147-3.072 0-1.696 1.409-3.071 3.147-3.071 1.738 0 3.147 1.375 3.147 3.071 0 1.697-1.41 3.072-3.147 3.072zm47.952 0c-1.738 0-3.147-1.375-3.147-3.072 0-1.696 1.409-3.071 3.147-3.071 1.738 0 3.147 1.375 3.147 3.071 0 1.697-1.409 3.072-3.147 3.072zm0 47.976c-1.738 0-3.147-1.375-3.147-3.072 0-1.696 1.409-3.071 3.147-3.071 1.738 0 3.147 1.375 3.147 3.071 0 1.697-1.409 3.072-3.147 3.072zM194.955 6.143c-1.738 0-3.147-1.375-3.147-3.071 0-1.697 1.41-3.072 3.147-3.072 1.738 0 3.147 1.375 3.147 3.072 0 1.696-1.409 3.071-3.147 3.071zm0 47.976c-1.738 0-3.147-1.375-3.147-3.071 0-1.697 1.41-3.072 3.147-3.072 1.738 0 3.147 1.375 3.147 3.072 0 1.696-1.409 3.071-3.147 3.071zm0 47.977c-1.738 0-3.147-1.376-3.147-3.072 0-1.697 1.41-3.072 3.147-3.072 1.738 0 3.147 1.375 3.147 3.072 0 1.696-1.409 3.072-3.147 3.072zm0 47.976c-1.738 0-3.147-1.376-3.147-3.072 0-1.696 1.41-3.072 3.147-3.072 1.738 0 3.147 1.376 3.147 3.072 0 1.696-1.409 3.072-3.147 3.072zm0 47.976c-1.738 0-3.147-1.375-3.147-3.072 0-1.696 1.41-3.072 3.147-3.072 1.738 0 3.147 1.376 3.147 3.072 0 1.697-1.409 3.072-3.147 3.072zm0 47.976c-1.738 0-3.147-1.375-3.147-3.072 0-1.696 1.41-3.071 3.147-3.071 1.738 0 3.147 1.375 3.147 3.071 0 1.697-1.409 3.072-3.147 3.072zm47.952-239.88c-1.738 0-3.147-1.376-3.147-3.072 0-1.697 1.41-3.072 3.147-3.072 1.738 0 3.147 1.375 3.147 3.072 0 1.696-1.409 3.071-3.147 3.071zm0 47.975c-1.738 0-3.147-1.375-3.147-3.071 0-1.697 1.41-3.072 3.147-3.072 1.738 0 3.147 1.375 3.147 3.072 0 1.696-1.409 3.071-3.147 3.071zm0 47.977c-1.738 0-3.147-1.376-3.147-3.072 0-1.697 1.41-3.072 3.147-3.072 1.738 0 3.147 1.375 3.147 3.072 0 1.696-1.409 3.072-3.147 3.072zm2.997 53.826c-3.393 0-6.144-2.685-6.144-5.997s2.75-5.997 6.144-5.997c3.393 0 6.144 2.685 6.144 5.997s-2.75 5.997-6.144 5.997zm-2.997 42.126c-1.738 0-3.147-1.375-3.147-3.072 0-1.696 1.41-3.072 3.147-3.072 1.738 0 3.147 1.376 3.147 3.072 0 1.697-1.409 3.072-3.147 3.072zm0 47.976c-1.738 0-3.147-1.375-3.147-3.072 0-1.696 1.41-3.071 3.147-3.071 1.738 0 3.147 1.375 3.147 3.071 0 1.697-1.409 3.072-3.147 3.072z" fill="#FAA"/><ellipse stroke="#FAA" stroke-width="3" fill="none" cx="149.048" cy="199.5" rx="77.5" ry="77"/><path d="M156.048 126l55.93-55.93" stroke="#0D3CFF" stroke-width="3" stroke-linecap="round"/></g></svg>