<svg width="31" height="147" xmlns="http://www.w3.org/2000/svg"><path d="M1.573 3.072C.704 3.072 0 2.384 0 1.536 0 .688.704 0 1.573 0c.87 0 1.574.688 1.574 1.536 0 .848-.705 1.536-1.574 1.536zm0 23.988C.704 27.06 0 26.372 0 25.524c0-.848.704-1.536 1.573-1.536.87 0 1.574.688 1.574 1.536 0 .848-.705 1.536-1.574 1.536zm1.499 26.913C1.375 53.973 0 52.631 0 50.975c0-1.656 1.375-2.999 3.072-2.999s3.072 1.343 3.072 2.999c0 1.656-1.375 2.998-3.072 2.998zM1.573 75.036C.704 75.036 0 74.348 0 73.5c0-.848.704-1.536 1.573-1.536.87 0 1.574.688 1.574 1.536 0 .848-.705 1.536-1.574 1.536zM25.55 3.072c-.869 0-1.573-.688-1.573-1.536C23.976.688 24.68 0 25.549 0c.87 0 1.574.688 1.574 1.536 0 .848-.705 1.536-1.574 1.536zm0 23.988c-.869 0-1.573-.688-1.573-1.536 0-.848.704-1.536 1.573-1.536.87 0 1.574.688 1.574 1.536 0 .848-.705 1.536-1.574 1.536zm0 23.988c-.869 0-1.573-.688-1.573-1.536 0-.848.704-1.536 1.573-1.536.87 0 1.574.688 1.574 1.536 0 .848-.705 1.536-1.574 1.536zm0 23.988c-.869 0-1.573-.688-1.573-1.536 0-.848.704-1.536 1.573-1.536.87 0 1.574.688 1.574 1.536 0 .848-.705 1.536-1.574 1.536zm1.499 26.913c-1.697 0-3.072-1.342-3.072-2.998 0-1.656 1.375-2.999 3.072-2.999s3.072 1.343 3.072 2.999c0 1.656-1.375 2.998-3.072 2.998zm-1.499 21.063c-.869 0-1.573-.688-1.573-1.536 0-.848.704-1.536 1.573-1.536.87 0 1.574.688 1.574 1.536 0 .848-.705 1.536-1.574 1.536zm0 23.988c-.869 0-1.573-.688-1.573-1.536 0-.848.704-1.536 1.573-1.536.87 0 1.574.688 1.574 1.536 0 .848-.705 1.536-1.574 1.536z" fill="#FAA" fill-rule="evenodd"/></svg>