<svg width="297" height="297" xmlns="http://www.w3.org/2000/svg"><g fill="none" fill-rule="evenodd"><path d="M191 179.318L257.318 113" stroke="#FAA" stroke-width="3" stroke-linecap="round"/><path d="M3.147 287.857c-1.738 0-3.147 1.375-3.147 3.071C0 292.625 1.409 294 3.147 294c1.738 0 3.147-1.375 3.147-3.072 0-1.696-1.41-3.071-3.147-3.071zm0-47.976c-1.738 0-3.147 1.375-3.147 3.071 0 1.697 1.409 3.072 3.147 3.072 1.738 0 3.147-1.375 3.147-3.072 0-1.696-1.41-3.071-3.147-3.071zm2.997-53.827C2.75 186.054 0 188.739 0 192.05s2.75 5.997 6.144 5.997c3.393 0 6.144-2.685 6.144-5.997s-2.751-5.997-6.144-5.997zm-2.997-42.126C1.409 143.928 0 145.304 0 147c0 1.696 1.409 3.072 3.147 3.072 1.738 0 3.147-1.376 3.147-3.072 0-1.696-1.41-3.072-3.147-3.072zm47.952 143.929c-1.738 0-3.147 1.375-3.147 3.071 0 1.697 1.409 3.072 3.147 3.072 1.738 0 3.147-1.375 3.147-3.072 0-1.696-1.41-3.071-3.147-3.071zm0-47.976c-1.738 0-3.147 1.375-3.147 3.071 0 1.697 1.409 3.072 3.147 3.072 1.738 0 3.147-1.375 3.147-3.072 0-1.696-1.41-3.071-3.147-3.071zm0-47.977c-1.738 0-3.147 1.376-3.147 3.072 0 1.697 1.409 3.072 3.147 3.072 1.738 0 3.147-1.375 3.147-3.072 0-1.696-1.41-3.072-3.147-3.072zm0-47.976c-1.738 0-3.147 1.376-3.147 3.072 0 1.696 1.409 3.072 3.147 3.072 1.738 0 3.147-1.376 3.147-3.072 0-1.696-1.41-3.072-3.147-3.072zm2.997-53.827c-3.393 0-6.144 2.685-6.144 5.998 0 3.312 2.75 5.997 6.144 5.997 3.393 0 6.144-2.685 6.144-5.997 0-3.313-2.75-5.998-6.144-5.998zm-2.997-42.125c-1.738 0-3.147 1.375-3.147 3.072 0 1.696 1.409 3.071 3.147 3.071 1.738 0 3.147-1.375 3.147-3.071 0-1.697-1.41-3.072-3.147-3.072zm0-47.976c-1.738 0-3.147 1.375-3.147 3.072 0 1.696 1.409 3.071 3.147 3.071 1.738 0 3.147-1.375 3.147-3.071 0-1.697-1.41-3.072-3.147-3.072zM99.05 287.857c-1.738 0-3.147 1.375-3.147 3.071 0 1.697 1.409 3.072 3.147 3.072 1.738 0 3.147-1.375 3.147-3.072 0-1.696-1.41-3.071-3.147-3.071zm0-47.976c-1.738 0-3.147 1.375-3.147 3.071 0 1.697 1.409 3.072 3.147 3.072 1.738 0 3.147-1.375 3.147-3.072 0-1.696-1.41-3.071-3.147-3.071zm0-47.977c-1.738 0-3.147 1.376-3.147 3.072 0 1.697 1.409 3.072 3.147 3.072 1.738 0 3.147-1.375 3.147-3.072 0-1.696-1.41-3.072-3.147-3.072zm0-47.976c-1.738 0-3.147 1.376-3.147 3.072 0 1.696 1.409 3.072 3.147 3.072 1.738 0 3.147-1.376 3.147-3.072 0-1.696-1.41-3.072-3.147-3.072zm2.997-53.827c-3.393 0-6.144 2.685-6.144 5.998 0 3.312 2.75 5.997 6.144 5.997 3.393 0 6.144-2.685 6.144-5.997 0-3.313-2.75-5.998-6.144-5.998zm0-47.976c-3.393 0-6.144 2.685-6.144 5.997s2.75 5.997 6.144 5.997c3.393 0 6.144-2.685 6.144-5.997s-2.75-5.997-6.144-5.997zM99.051 0c-1.738 0-3.147 1.375-3.147 3.072 0 1.696 1.409 3.071 3.147 3.071 1.738 0 3.147-1.375 3.147-3.071 0-1.697-1.41-3.072-3.147-3.072zM150 285.006c-3.393 0-6.144 2.685-6.144 5.997S146.606 297 150 297c3.393 0 6.144-2.685 6.144-5.997s-2.75-5.997-6.144-5.997zm0-47.976c-3.393 0-6.144 2.685-6.144 5.997s2.75 5.997 6.144 5.997c3.393 0 6.144-2.685 6.144-5.997s-2.75-5.997-6.144-5.997zm0-50.976c-3.393 0-6.144 2.685-6.144 5.997s2.75 5.997 6.144 5.997c3.393 0 6.144-2.685 6.144-5.997s-2.75-5.997-6.144-5.997zm0-47.976c-3.393 0-6.144 2.685-6.144 5.997s2.75 5.997 6.144 5.997c3.393 0 6.144-2.685 6.144-5.997s-2.75-5.997-6.144-5.997zm0-47.977c-3.393 0-6.144 2.685-6.144 5.998 0 3.312 2.75 5.997 6.144 5.997 3.393 0 6.144-2.685 6.144-5.997 0-3.313-2.75-5.998-6.144-5.998zm-2.997-42.125c-1.738 0-3.147 1.375-3.147 3.072 0 1.696 1.409 3.071 3.147 3.071 1.738 0 3.147-1.375 3.147-3.071 0-1.697-1.409-3.072-3.147-3.072zm47.952 239.88c-1.738 0-3.147 1.376-3.147 3.072 0 1.697 1.41 3.072 3.147 3.072 1.738 0 3.147-1.375 3.147-3.072 0-1.696-1.409-3.071-3.147-3.071zm0-47.975c-1.738 0-3.147 1.375-3.147 3.071 0 1.697 1.41 3.072 3.147 3.072 1.738 0 3.147-1.375 3.147-3.072 0-1.696-1.409-3.071-3.147-3.071zm0-47.977c-1.738 0-3.147 1.376-3.147 3.072 0 1.697 1.41 3.072 3.147 3.072 1.738 0 3.147-1.375 3.147-3.072 0-1.696-1.409-3.072-3.147-3.072zm0-47.976c-1.738 0-3.147 1.376-3.147 3.072 0 1.696 1.41 3.072 3.147 3.072 1.738 0 3.147-1.376 3.147-3.072 0-1.696-1.409-3.072-3.147-3.072zm0-47.976c-1.738 0-3.147 1.375-3.147 3.072 0 1.696 1.41 3.072 3.147 3.072 1.738 0 3.147-1.376 3.147-3.072 0-1.697-1.409-3.072-3.147-3.072zm0-47.976c-1.738 0-3.147 1.375-3.147 3.072 0 1.696 1.41 3.071 3.147 3.071 1.738 0 3.147-1.375 3.147-3.071 0-1.697-1.409-3.072-3.147-3.072zm0-47.976c-1.738 0-3.147 1.375-3.147 3.072 0 1.696 1.41 3.071 3.147 3.071 1.738 0 3.147-1.375 3.147-3.071 0-1.697-1.409-3.072-3.147-3.072zm47.952 287.857c-1.738 0-3.147 1.375-3.147 3.071 0 1.697 1.41 3.072 3.147 3.072 1.738 0 3.147-1.375 3.147-3.072 0-1.696-1.409-3.071-3.147-3.071zm0-47.976c-1.738 0-3.147 1.375-3.147 3.071 0 1.697 1.41 3.072 3.147 3.072 1.738 0 3.147-1.375 3.147-3.072 0-1.696-1.409-3.071-3.147-3.071zm0-47.977c-1.738 0-3.147 1.376-3.147 3.072 0 1.697 1.41 3.072 3.147 3.072 1.738 0 3.147-1.375 3.147-3.072 0-1.696-1.409-3.072-3.147-3.072zm0-47.976c-1.738 0-3.147 1.376-3.147 3.072 0 1.696 1.41 3.072 3.147 3.072 1.738 0 3.147-1.376 3.147-3.072 0-1.696-1.409-3.072-3.147-3.072zm0-47.976c-1.738 0-3.147 1.375-3.147 3.072 0 1.696 1.41 3.072 3.147 3.072 1.738 0 3.147-1.376 3.147-3.072 0-1.697-1.409-3.072-3.147-3.072zm0-47.976c-1.738 0-3.147 1.375-3.147 3.072 0 1.696 1.41 3.071 3.147 3.071 1.738 0 3.147-1.375 3.147-3.071 0-1.697-1.409-3.072-3.147-3.072zm47.952 239.88c-1.738 0-3.147 1.376-3.147 3.072 0 1.697 1.41 3.072 3.147 3.072 1.738 0 3.147-1.375 3.147-3.072 0-1.696-1.409-3.071-3.147-3.071zm0-47.975c-1.738 0-3.147 1.375-3.147 3.071 0 1.697 1.41 3.072 3.147 3.072 1.738 0 3.147-1.375 3.147-3.072 0-1.696-1.409-3.071-3.147-3.071zm0-47.977c-1.738 0-3.147 1.376-3.147 3.072 0 1.697 1.41 3.072 3.147 3.072 1.738 0 3.147-1.375 3.147-3.072 0-1.696-1.409-3.072-3.147-3.072zm-.003-53.826c-3.393 0-6.144 2.685-6.144 5.997s2.751 5.997 6.144 5.997c3.393 0 6.144-2.685 6.144-5.997s-2.75-5.997-6.144-5.997zm.003-42.126c-1.738 0-3.147 1.375-3.147 3.072 0 1.696 1.41 3.072 3.147 3.072 1.738 0 3.147-1.376 3.147-3.072 0-1.697-1.409-3.072-3.147-3.072zm0-47.976c-1.738 0-3.147 1.375-3.147 3.072 0 1.696 1.41 3.071 3.147 3.071 1.738 0 3.147-1.375 3.147-3.071 0-1.697-1.409-3.072-3.147-3.072z" fill="#FAA"/><g stroke-linecap="round" stroke-width="3"><path stroke="#0D3CFF" d="M243 43v200H43l118.233-118.233"/><path d="M134.612 201.707l48.888-48.889M231.072 139.246L257.318 113" stroke="#FAA"/></g></g></svg>