<svg  width="56" height="54" xmlns="http://www.w3.org/2000/svg"><g stroke="#FAA" strokeWidth="2" fill="none" fillRule="evenodd" strokeLinecap="round"><path d="M15 23.502H5l-3.655 29h52.769l-3.114-29H41" /><path d="M38.788 10.673c-.525-3.999-2.615-9.181-10.822-9.181-8.208 0-10.298 5.182-10.822 9.181-.288 2.192-.127 4.419.33 6.583 2.508 11.892 8.709 19.022 10.177 20.576a.43.43 0 0 0 .63 0c1.467-1.554 7.668-8.684 10.177-20.576.456-2.164.617-4.391.33-6.583z" /><path d="M34.311 12.068a6.346 6.346 0 1 1-6.345-6.346 6.346 6.346 0 0 1 6.345 6.346z" /><path d="M42.795 28.441c1.165-.328 2.471-.249 3.514.367 1.043.615 1.767 1.801 1.685 3.009-.064.939-.576 1.784-1.113 2.557-.392.563-.814 1.121-1.375 1.516-.834.587-1.886.753-2.9.856-2.667.272-5.358.218-8.026.48s-5.368.868-7.617 2.327c-1.045.677-1.968 1.522-2.937 2.304a28.852 28.852 0 0 1-9.627 5.137c-1.108.34-2.268.613-3.418.469-1.15-.143-2.297-.775-2.782-1.827-.258-.561-.313-1.195-.283-1.812.107-2.196 1.587-4.498 3.773-4.739.629-.069 1.323.062 1.749.529" strokeDasharray="3" /></g></svg>
